<svg width="1110" height="289" viewBox="0 0 1110 289" fill="none" xmlns="http://www.w3.org/2000/svg">
<mask id="mask0_0_548" style="mask-type:alpha" maskUnits="userSpaceOnUse" x="0" y="0" width="1110" height="289">
<rect y="0.109375" width="1110" height="288" rx="16" fill="#C4C4C4"/>
</mask>
<g mask="url(#mask0_0_548)">
<rect y="0.109375" width="1110" height="288" rx="16" fill="#0052FE"/>
<path opacity="0.06" d="M730.285 206.826C612.469 122.188 450.104 221.093 321.427 154.112C254.477 119.261 240.899 87.8135 192.856 35.8259C162.041 2.48077 159.104 -3.32423 129.856 -27.1741C100.609 -51.024 47.5703 -78.6027 47.5703 -78.6027V-166.031H1432.28V416.397H1101.86C1101.86 416.397 925.371 419.147 840.856 346.969C789.453 303.069 790.595 250.153 730.285 206.826Z" fill="white"/>
<path opacity="0.06" d="M777.855 178.826C660.039 94.1882 497.674 214.95 368.998 147.969C302.047 113.118 266.998 -10.3884 247.498 -46.8884C236.813 -66.8884 220.498 -84.8884 193.998 -98.8884C167.498 -112.888 95.1406 -106.603 95.1406 -106.603V-194.031H1479.85V351.826H1170C1170 351.826 952.712 358.826 881.998 308.683C820.283 264.922 838.166 222.153 777.855 178.826Z" fill="white"/>
</g>
<path opacity="0.3" d="M315.591 203.816C345.194 173.262 345.194 123.723 315.591 93.1682C285.988 62.6135 237.993 62.6135 208.39 93.1682C178.787 123.723 178.787 173.262 208.39 203.816C237.993 234.371 285.988 234.371 315.591 203.816Z" fill="#C7E4FF"/>
<path opacity="0.5" d="M323.779 167.212V193.585C320.981 197.604 317.817 201.372 314.41 204.888V167.212C314.41 166.961 309.786 163.068 306.258 160.179V158.421L310.516 157.291C312.22 156.788 314.045 157.04 315.748 157.667C316.479 158.044 317.209 158.295 318.06 158.547V161.937C321.589 165.077 323.779 166.961 323.779 167.212Z" fill="#A6C4FF"/>
<path d="M154.16 48.1406L176.427 102.017L192.609 90.4635L202.1 104.655L203.804 80.7933L223.393 68.4857L154.16 48.1406Z" fill="#FFB031"/>
<path d="M196.262 87.9514L176.429 102.017L192.612 90.4632L202.103 104.654L203.806 80.7929L172.414 61.5781L196.262 87.9514Z" fill="#FF9433"/>
<path d="M203.32 86.6955L172.414 61.5781L203.806 80.7929L203.32 86.6955Z" fill="#FF7733"/>
<path d="M202.46 111.313C202.338 110.309 202.095 109.178 201.852 108.174L203.433 107.797C203.677 108.802 203.92 109.932 204.163 111.062L202.46 111.313Z" fill="#00C8B7"/>
<path d="M184.085 147.86C181.774 147.734 179.583 146.981 177.758 145.725L178.61 144.343C180.192 145.474 182.139 146.101 184.207 146.227L184.085 147.86ZM190.534 146.604L189.804 145.097C191.386 144.218 193.089 142.962 194.55 141.204L195.766 142.334C194.185 144.218 192.359 145.599 190.534 146.604ZM173.256 140.576C172.405 138.692 171.918 136.682 171.918 134.673C171.918 134.547 171.918 134.296 171.918 134.171V133.794L173.5 133.919V134.171C173.5 134.296 173.5 134.422 173.5 134.547C173.5 136.306 173.865 138.064 174.716 139.696L173.256 140.576ZM234.337 140.199V138.566C236.406 138.566 238.474 138.441 240.664 138.315L240.786 139.948C238.596 140.073 236.406 140.073 234.337 140.199ZM228.01 139.948L227.037 139.822C225.09 139.696 223.387 139.445 221.683 139.069L221.926 137.436C223.508 137.687 225.212 137.938 227.158 138.064L228.132 138.189L228.01 139.948ZM247.113 139.194L246.87 137.562C248.938 137.31 251.007 136.934 253.075 136.557L253.319 138.189C251.25 138.566 249.182 138.943 247.113 139.194ZM215.356 137.562C213.531 136.934 211.706 136.054 210.246 135.175C210.002 135.05 209.759 134.924 209.516 134.673L210.367 133.292C210.611 133.417 210.854 133.543 211.097 133.668C212.557 134.547 214.261 135.301 215.964 135.929L215.356 137.562ZM199.538 136.934L198.2 136.18C199.173 134.296 200.147 132.412 200.755 130.403L202.215 130.905C201.485 132.915 200.633 134.924 199.538 136.934ZM259.646 136.682L259.281 135.05C261.227 134.547 263.296 134.045 265.364 133.417L265.851 134.924C263.661 135.678 261.592 136.18 259.646 136.682ZM271.935 133.166L271.448 131.659C273.395 131.031 275.463 130.277 277.41 129.524L277.897 131.031C275.95 131.785 273.882 132.412 271.935 133.166ZM204.162 130.905C202.702 129.775 201.12 128.645 199.417 127.766L198.93 127.515L199.66 126.007C199.903 126.133 200.025 126.259 200.268 126.259C202.093 127.263 203.675 128.519 205.135 129.524L204.162 130.905ZM175.812 128.519L174.716 127.389C176.055 126.008 178.002 124.877 180.557 124.124L181.044 125.631C178.61 126.384 176.907 127.263 175.812 128.519ZM193.089 125.38C191.264 125.003 189.439 124.752 187.614 124.752H187.006V123.119C189.196 123.119 191.386 123.245 193.454 123.747L193.089 125.38ZM203.919 124.375L202.337 124.124C202.702 121.989 202.945 119.854 202.945 117.719H204.527C204.527 119.979 204.284 122.114 203.919 124.375Z" fill="#6EB5F6"/>
<path d="M283.983 128.645L283.375 127.138C284.348 126.761 285.322 126.385 286.295 126.008L286.904 127.515C285.93 127.892 284.957 128.268 283.983 128.645Z" fill="#00C8B7"/>
<path d="M314.412 167.197L259.415 200.604L204.539 167.197V167.072C204.539 166.821 207.581 164.183 212.205 160.416L212.326 160.29C227.536 147.606 259.415 121.609 259.415 121.609C259.415 121.609 291.415 147.606 306.503 160.416C311.248 164.309 314.412 166.946 314.412 167.197Z" fill="#7A4C08"/>
<path d="M282.05 93.8516H222.794C217.684 93.8516 213.547 98.1215 213.547 103.396V195.954C213.547 201.229 217.684 205.498 222.794 205.498H297.138C302.248 205.498 306.385 201.229 306.385 195.954V118.843L282.05 93.8516Z" fill="white"/>
<path d="M282.051 109.299C282.051 114.573 286.188 118.843 291.298 118.843H306.264L282.051 93.8516V109.299Z" fill="#E6E8E8"/>
<path d="M251.007 113.547L230.914 133.869H237.168L239.004 131.175L249.401 115.907L251.007 113.547Z" fill="white"/>
<path d="M245.085 113.547L244.442 114.469L234.359 128.928L230.914 133.869L251.007 113.547H245.085Z" fill="white"/>
<path d="M249.015 130.321L248.756 129.942C248.539 129.625 248.187 129.438 247.813 129.438H243.086C242.911 129.438 242.776 129.545 242.711 129.687L251.448 133.87L249.015 130.321Z" fill="white"/>
<path d="M242.712 129.688C242.655 129.814 242.654 129.969 242.74 130.105L243.71 131.629H243.713L245.14 133.87H251.45L242.713 129.688H242.712Z" fill="white"/>
<path d="M239.878 117.308L238.382 115.04L237.396 113.547H231.223L239.781 117.893C239.949 117.763 240.012 117.511 239.879 117.308H239.878Z" fill="white"/>
<path d="M231.223 113.548L233.856 117.467C233.868 117.482 233.878 117.496 233.889 117.511C234.107 117.806 234.445 117.98 234.806 117.98H239.535C239.632 117.98 239.714 117.945 239.782 117.893L231.223 113.547L231.223 113.548Z" fill="white"/>
<path d="M250.995 113.406L230.633 134H236.971L238.831 131.27L249.367 115.798L250.995 113.406Z" fill="url(#paint0_linear_0_548)"/>
<path d="M244.993 113.406L244.342 114.34L234.123 128.993L230.633 134L250.995 113.406H244.993Z" fill="url(#paint1_linear_0_548)"/>
<path d="M248.982 130.404L248.719 130.019C248.5 129.698 248.143 129.508 247.764 129.508H242.974C242.797 129.508 242.659 129.616 242.594 129.761L251.447 134L248.982 130.404Z" fill="#F69300"/>
<path d="M242.588 129.766C242.53 129.894 242.529 130.051 242.615 130.188L243.599 131.733H243.601L245.048 134.004H251.442L242.589 129.766H242.588Z" fill="url(#paint2_linear_0_548)"/>
<path d="M239.713 117.217L238.196 114.919L237.197 113.406H230.941L239.615 117.81C239.785 117.679 239.849 117.424 239.713 117.217H239.713Z" fill="url(#paint3_linear_0_548)"/>
<path d="M230.941 113.407L233.61 117.378C233.622 117.394 233.632 117.408 233.644 117.424C233.865 117.722 234.207 117.898 234.573 117.898H239.365C239.463 117.898 239.547 117.863 239.615 117.81L230.942 113.406L230.941 113.407Z" fill="#F69300"/>
<path d="M279.373 145.094H230.216C228.756 145.094 227.539 146.35 227.539 147.857C227.539 149.364 228.756 150.62 230.216 150.62H279.373C280.833 150.62 282.049 149.364 282.049 147.857C282.049 146.35 280.833 145.094 279.373 145.094Z" fill="#C7E4FF"/>
<path d="M279.373 158.781H230.216C228.756 158.781 227.539 160.037 227.539 161.544C227.539 163.051 228.756 164.307 230.216 164.307H279.373C280.833 164.307 282.049 163.051 282.049 161.544C282.049 159.912 280.833 158.781 279.373 158.781Z" fill="#C7E4FF"/>
<path d="M257.106 171.969H230.337C228.877 171.969 227.66 173.225 227.66 174.732C227.66 176.239 228.877 177.495 230.337 177.495H257.106C258.566 177.495 259.782 176.239 259.782 174.732C259.661 173.099 258.566 171.969 257.106 171.969Z" fill="#C7E4FF"/>
<path d="M314.412 167.188V221.567C314.412 225.334 311.37 228.474 307.719 228.474H211.231C207.581 228.474 204.539 225.334 204.539 221.567V167.188L259.536 200.594L314.412 167.188Z" fill="#FFB031"/>
<path d="M312.586 226.468L277.179 189.922L259.414 200.722L241.65 189.922L206.242 226.468C207.459 227.849 209.162 228.603 211.109 228.603H307.719C309.666 228.603 311.369 227.724 312.586 226.468Z" fill="#FF9433"/>
<path d="M325.476 92.4751C309.658 94.1077 297.004 107.546 295.909 123.872C295.3 132.035 297.612 139.57 301.749 145.724C303.331 147.985 303.574 150.999 302.479 153.636L299.924 160.167L310.632 157.278C312.335 156.776 314.16 156.901 315.864 157.655C320.852 159.915 326.328 160.92 332.29 160.292C347.864 158.785 360.397 145.85 361.857 129.774C363.804 108.299 346.404 90.4657 325.476 92.4751Z" fill="#0052FE"/>
<path d="M329.734 143.713L331.56 141.829C331.56 141.829 330.1 138.313 336.183 132.41C339.834 128.894 340.564 125.503 340.32 122.74C339.834 118.344 336.305 114.702 332.046 114.2C329.369 113.949 326.084 114.702 322.677 118.47C316.959 124.749 313.552 123.242 313.552 123.242L311.727 125.126L329.734 143.713Z" fill="white"/>
<path d="M315.74 132.164C314.28 134.173 314.523 137.062 316.227 138.82C317.93 140.578 320.729 140.83 322.675 139.323L315.74 132.164Z" fill="white"/>
<path d="M341.538 116.34L340.443 117.471C339.591 116.089 338.374 114.833 336.914 113.954L338.009 112.824C338.983 111.819 340.564 111.819 341.538 112.824C342.389 113.829 342.389 115.336 341.538 116.34Z" fill="white"/>
<path d="M328.034 92.3466C339.837 95.9886 348.354 107.166 348.354 120.604C348.354 136.93 335.578 150.117 319.76 150.117C311.486 150.117 304.064 146.475 298.832 140.572C299.684 142.456 300.657 144.214 301.752 145.847C303.334 148.107 303.577 151.121 302.482 153.759L299.927 160.289L310.635 157.401C312.338 156.898 314.163 157.024 315.867 157.777C320.855 160.038 326.331 161.043 332.293 160.415C347.867 158.908 360.4 145.972 361.86 129.897C363.685 109.175 347.745 91.8442 328.034 92.3466Z" fill="#0141CF"/>
<path d="M155.985 64.0871L163.164 81.1669C163.529 82.046 163.164 83.0507 162.312 83.4275L162.069 83.5531C161.217 83.9298 160.243 83.5531 159.878 82.674L152.943 65.4685C152.578 64.5894 153.065 63.5847 153.916 63.208C154.768 62.8312 155.741 63.208 155.985 64.0871Z" fill="#FFB031"/>
<g clip-path="url(#clip0_0_548)">
<path d="M476.817 69.6023C476.737 68.8002 476.396 68.1771 475.793 67.733C475.189 67.2888 474.371 67.0668 473.337 67.0668C472.634 67.0668 472.041 67.1662 471.557 67.3651C471.073 67.5573 470.702 67.8258 470.443 68.1705C470.191 68.5152 470.065 68.9062 470.065 69.3438C470.052 69.7083 470.128 70.0265 470.294 70.2983C470.466 70.5701 470.702 70.8054 471 71.0043C471.298 71.1965 471.643 71.3655 472.034 71.5114C472.425 71.6506 472.843 71.7699 473.287 71.8693L475.116 72.3068C476.005 72.5057 476.82 72.7708 477.562 73.1023C478.305 73.4337 478.948 73.8414 479.491 74.3253C480.035 74.8092 480.456 75.3793 480.754 76.0355C481.059 76.6918 481.215 77.4441 481.222 78.2926C481.215 79.5388 480.897 80.6193 480.267 81.5341C479.644 82.4422 478.742 83.1482 477.562 83.652C476.389 84.1491 474.974 84.3977 473.317 84.3977C471.673 84.3977 470.241 84.1458 469.021 83.642C467.808 83.1383 466.86 82.3925 466.178 81.4048C465.501 80.4105 465.147 79.1809 465.114 77.7159H469.28C469.326 78.3987 469.522 78.9687 469.866 79.4261C470.218 79.8769 470.685 80.2183 471.268 80.4503C471.858 80.6757 472.525 80.7884 473.267 80.7884C473.996 80.7884 474.629 80.6823 475.166 80.4702C475.71 80.258 476.131 79.9631 476.429 79.5852C476.727 79.2074 476.876 78.7732 476.876 78.2827C476.876 77.8253 476.741 77.4408 476.469 77.1293C476.204 76.8177 475.813 76.5526 475.295 76.3338C474.785 76.1151 474.159 75.9162 473.416 75.7372L471.199 75.1804C469.482 74.7628 468.126 74.1098 467.132 73.2216C466.138 72.3333 465.644 71.1368 465.651 69.6321C465.644 68.3991 465.972 67.322 466.635 66.4006C467.304 65.4792 468.223 64.7599 469.389 64.2429C470.556 63.7259 471.882 63.4673 473.366 63.4673C474.878 63.4673 476.197 63.7259 477.324 64.2429C478.457 64.7599 479.339 65.4792 479.969 66.4006C480.598 67.322 480.923 68.3892 480.943 69.6023H476.817ZM492.162 68.8366V72.0185H482.964V68.8366H492.162ZM485.052 65.1776H489.288V79.4162C489.288 79.8073 489.348 80.1122 489.467 80.331C489.586 80.5431 489.752 80.6922 489.964 80.7784C490.183 80.8646 490.435 80.9077 490.72 80.9077C490.919 80.9077 491.118 80.8911 491.316 80.858C491.515 80.8182 491.668 80.7884 491.774 80.7685L492.44 83.9205C492.228 83.9867 491.93 84.063 491.545 84.1491C491.161 84.242 490.693 84.2983 490.143 84.3182C489.122 84.358 488.227 84.2221 487.458 83.9105C486.696 83.599 486.103 83.1151 485.679 82.4588C485.254 81.8026 485.046 80.974 485.052 79.973V65.1776ZM499.276 84.3977C498.301 84.3977 497.433 84.2287 496.671 83.8906C495.908 83.5459 495.305 83.0388 494.861 82.3693C494.424 81.6932 494.205 80.8513 494.205 79.8438C494.205 78.9953 494.361 78.2827 494.672 77.706C494.984 77.1293 495.408 76.6652 495.945 76.3139C496.482 75.9626 497.092 75.6974 497.775 75.5185C498.464 75.3395 499.186 75.2135 499.942 75.1406C500.83 75.0478 501.546 74.9616 502.09 74.8821C502.633 74.7959 503.028 74.67 503.273 74.5043C503.518 74.3385 503.641 74.0933 503.641 73.7685V73.7088C503.641 73.0791 503.442 72.5919 503.044 72.2472C502.653 71.9025 502.096 71.7301 501.374 71.7301C500.612 71.7301 500.005 71.8991 499.554 72.2372C499.104 72.5687 498.805 72.9863 498.659 73.4901L494.742 73.1719C494.941 72.2438 495.332 71.4418 495.915 70.7656C496.498 70.0829 497.251 69.5592 498.172 69.1946C499.1 68.8234 500.174 68.6378 501.394 68.6378C502.242 68.6378 503.054 68.7372 503.83 68.9361C504.612 69.1349 505.305 69.4432 505.908 69.8608C506.518 70.2784 506.998 70.8153 507.35 71.4716C507.701 72.1212 507.877 72.9001 507.877 73.8082V84.1094H503.86V81.9915H503.74C503.495 82.4688 503.167 82.8897 502.756 83.2543C502.345 83.6122 501.851 83.8939 501.275 84.0994C500.698 84.2983 500.032 84.3977 499.276 84.3977ZM500.489 81.4744C501.112 81.4744 501.662 81.3518 502.14 81.1065C502.617 80.8546 502.991 80.5166 503.263 80.0923C503.535 79.6681 503.671 79.1875 503.671 78.6506V77.0298C503.538 77.116 503.356 77.1955 503.124 77.2685C502.899 77.3348 502.643 77.3977 502.358 77.4574C502.073 77.5104 501.788 77.5601 501.503 77.6065C501.218 77.6463 500.96 77.6828 500.728 77.7159C500.23 77.7888 499.796 77.9048 499.425 78.0639C499.054 78.223 498.766 78.4384 498.56 78.7102C498.355 78.9754 498.252 79.3068 498.252 79.7045C498.252 80.2812 498.461 80.7221 498.878 81.027C499.302 81.3253 499.839 81.4744 500.489 81.4744ZM513.231 89.8366C512.694 89.8366 512.19 89.7936 511.72 89.7074C511.256 89.6278 510.871 89.5251 510.566 89.3991L511.521 86.2372C512.018 86.3897 512.466 86.4725 512.863 86.4858C513.268 86.4991 513.616 86.4063 513.907 86.2074C514.206 86.0085 514.448 85.6705 514.633 85.1932L514.882 84.5469L509.403 68.8366H513.858L517.02 80.0526H517.179L520.37 68.8366H524.855L518.919 85.7599C518.634 86.5819 518.246 87.2978 517.755 87.9077C517.271 88.5241 516.658 88.9981 515.916 89.3295C515.173 89.6676 514.279 89.8366 513.231 89.8366ZM543.297 77.6065V68.8366H547.533V84.1094H543.466V81.3352H543.307C542.962 82.2301 542.389 82.9493 541.587 83.4929C540.791 84.0365 539.82 84.3082 538.673 84.3082C537.652 84.3082 536.754 84.0762 535.979 83.6122C535.203 83.1482 534.597 82.4886 534.159 81.6335C533.728 80.7784 533.509 79.7543 533.503 78.5611V68.8366H537.739V77.8054C537.745 78.7069 537.987 79.4195 538.464 79.9432C538.942 80.4669 539.581 80.7287 540.384 80.7287C540.894 80.7287 541.371 80.6127 541.815 80.3807C542.259 80.142 542.617 79.7907 542.889 79.3267C543.168 78.8627 543.304 78.2893 543.297 77.6065ZM550.921 89.8366V68.8366H555.097V71.402H555.286C555.471 70.991 555.74 70.5734 556.091 70.1491C556.449 69.7183 556.913 69.3603 557.483 69.0753C558.06 68.7836 558.776 68.6378 559.631 68.6378C560.745 68.6378 561.772 68.9295 562.713 69.5128C563.655 70.0895 564.407 70.9612 564.971 72.1278C565.534 73.2879 565.816 74.7429 565.816 76.4929C565.816 78.1965 565.541 79.6349 564.99 80.8082C564.447 81.9749 563.704 82.8598 562.763 83.4631C561.828 84.0597 560.781 84.358 559.621 84.358C558.799 84.358 558.1 84.2221 557.523 83.9503C556.953 83.6785 556.486 83.3371 556.121 82.9261C555.757 82.5085 555.478 82.0876 555.286 81.6634H555.157V89.8366H550.921ZM555.067 76.473C555.067 77.3812 555.193 78.1733 555.445 78.8494C555.697 79.5256 556.061 80.0526 556.539 80.4304C557.016 80.8016 557.596 80.9872 558.279 80.9872C558.968 80.9872 559.551 80.7983 560.029 80.4205C560.506 80.036 560.867 79.5057 561.113 78.8295C561.364 78.1468 561.49 77.3613 561.49 76.473C561.49 75.5914 561.368 74.8158 561.123 74.1463C560.877 73.4768 560.516 72.9531 560.039 72.5753C559.561 72.1974 558.975 72.0085 558.279 72.0085C557.589 72.0085 557.006 72.1908 556.529 72.5554C556.058 72.92 555.697 73.437 555.445 74.1065C555.193 74.776 555.067 75.5649 555.067 76.473ZM583.244 68.8366V72.0185H574.046V68.8366H583.244ZM576.134 65.1776H580.37V79.4162C580.37 79.8073 580.43 80.1122 580.549 80.331C580.668 80.5431 580.834 80.6922 581.046 80.7784C581.265 80.8646 581.517 80.9077 581.802 80.9077C582.001 80.9077 582.2 80.8911 582.398 80.858C582.597 80.8182 582.75 80.7884 582.856 80.7685L583.522 83.9205C583.31 83.9867 583.012 84.063 582.627 84.1491C582.243 84.242 581.775 84.2983 581.225 84.3182C580.204 84.358 579.309 84.2221 578.54 83.9105C577.778 83.599 577.185 83.1151 576.761 82.4588C576.336 81.8026 576.128 80.974 576.134 79.973V65.1776ZM592.739 84.4077C591.195 84.4077 589.859 84.0795 588.732 83.4233C587.612 82.7604 586.747 81.839 586.137 80.6591C585.527 79.4725 585.222 78.0971 585.222 76.5327C585.222 74.955 585.527 73.5762 586.137 72.3963C586.747 71.2098 587.612 70.2884 588.732 69.6321C589.859 68.9692 591.195 68.6378 592.739 68.6378C594.284 68.6378 595.616 68.9692 596.737 69.6321C597.863 70.2884 598.732 71.2098 599.342 72.3963C599.951 73.5762 600.256 74.955 600.256 76.5327C600.256 78.0971 599.951 79.4725 599.342 80.6591C598.732 81.839 597.863 82.7604 596.737 83.4233C595.616 84.0795 594.284 84.4077 592.739 84.4077ZM592.759 81.1264C593.462 81.1264 594.049 80.9276 594.519 80.5298C594.99 80.1255 595.344 79.5753 595.583 78.8793C595.828 78.1832 595.951 77.3911 595.951 76.5028C595.951 75.6146 595.828 74.8224 595.583 74.1264C595.344 73.4304 594.99 72.8802 594.519 72.4759C594.049 72.0715 593.462 71.8693 592.759 71.8693C592.05 71.8693 591.453 72.0715 590.969 72.4759C590.492 72.8802 590.131 73.4304 589.886 74.1264C589.647 74.8224 589.528 75.6146 589.528 76.5028C589.528 77.3911 589.647 78.1832 589.886 78.8793C590.131 79.5753 590.492 80.1255 590.969 80.5298C591.453 80.9276 592.05 81.1264 592.759 81.1264ZM615.119 84.358C613.959 84.358 612.908 84.0597 611.967 83.4631C611.032 82.8598 610.29 81.9749 609.74 80.8082C609.196 79.6349 608.924 78.1965 608.924 76.4929C608.924 74.7429 609.206 73.2879 609.77 72.1278C610.333 70.9612 611.082 70.0895 612.017 69.5128C612.958 68.9295 613.989 68.6378 615.109 68.6378C615.964 68.6378 616.677 68.7836 617.247 69.0753C617.824 69.3603 618.288 69.7183 618.639 70.1491C618.997 70.5734 619.269 70.991 619.454 71.402H619.583V63.7457H623.809V84.1094H619.633V81.6634H619.454C619.255 82.0876 618.974 82.5085 618.609 82.9261C618.251 83.3371 617.784 83.6785 617.207 83.9503C616.637 84.2221 615.941 84.358 615.119 84.358ZM616.461 80.9872C617.144 80.9872 617.721 80.8016 618.191 80.4304C618.669 80.0526 619.033 79.5256 619.285 78.8494C619.544 78.1733 619.673 77.3812 619.673 76.473C619.673 75.5649 619.547 74.776 619.295 74.1065C619.043 73.437 618.679 72.92 618.201 72.5554C617.724 72.1908 617.144 72.0085 616.461 72.0085C615.765 72.0085 615.179 72.1974 614.701 72.5753C614.224 72.9531 613.863 73.4768 613.618 74.1463C613.372 74.8158 613.25 75.5914 613.25 76.473C613.25 77.3613 613.372 78.1468 613.618 78.8295C613.869 79.5057 614.231 80.036 614.701 80.4205C615.179 80.7983 615.765 80.9872 616.461 80.9872ZM631.647 84.3977C630.673 84.3977 629.804 84.2287 629.042 83.8906C628.28 83.5459 627.676 83.0388 627.232 82.3693C626.795 81.6932 626.576 80.8513 626.576 79.8438C626.576 78.9953 626.732 78.2827 627.043 77.706C627.355 77.1293 627.779 76.6652 628.316 76.3139C628.853 75.9626 629.463 75.6974 630.146 75.5185C630.835 75.3395 631.558 75.2135 632.313 75.1406C633.201 75.0478 633.917 74.9616 634.461 74.8821C635.004 74.7959 635.399 74.67 635.644 74.5043C635.889 74.3385 636.012 74.0933 636.012 73.7685V73.7088C636.012 73.0791 635.813 72.5919 635.415 72.2472C635.024 71.9025 634.468 71.7301 633.745 71.7301C632.983 71.7301 632.376 71.8991 631.925 72.2372C631.475 72.5687 631.176 72.9863 631.031 73.4901L627.113 73.1719C627.312 72.2438 627.703 71.4418 628.286 70.7656C628.87 70.0829 629.622 69.5592 630.543 69.1946C631.471 68.8234 632.545 68.6378 633.765 68.6378C634.613 68.6378 635.425 68.7372 636.201 68.9361C636.983 69.1349 637.676 69.4432 638.279 69.8608C638.889 70.2784 639.37 70.8153 639.721 71.4716C640.072 72.1212 640.248 72.9001 640.248 73.8082V84.1094H636.231V81.9915H636.112C635.866 82.4688 635.538 82.8897 635.127 83.2543C634.716 83.6122 634.222 83.8939 633.646 84.0994C633.069 84.2983 632.403 84.3977 631.647 84.3977ZM632.86 81.4744C633.483 81.4744 634.033 81.3518 634.511 81.1065C634.988 80.8546 635.362 80.5166 635.634 80.0923C635.906 79.6681 636.042 79.1875 636.042 78.6506V77.0298C635.909 77.116 635.727 77.1955 635.495 77.2685C635.27 77.3348 635.014 77.3977 634.729 77.4574C634.444 77.5104 634.159 77.5601 633.874 77.6065C633.589 77.6463 633.331 77.6828 633.099 77.7159C632.602 77.7888 632.167 77.9048 631.796 78.0639C631.425 78.223 631.137 78.4384 630.931 78.7102C630.726 78.9754 630.623 79.3068 630.623 79.7045C630.623 80.2812 630.832 80.7221 631.249 81.027C631.674 81.3253 632.21 81.4744 632.86 81.4744ZM651.658 68.8366V72.0185H642.46V68.8366H651.658ZM644.548 65.1776H648.784V79.4162C648.784 79.8073 648.844 80.1122 648.963 80.331C649.082 80.5431 649.248 80.6922 649.46 80.7784C649.679 80.8646 649.931 80.9077 650.216 80.9077C650.415 80.9077 650.614 80.8911 650.812 80.858C651.011 80.8182 651.164 80.7884 651.27 80.7685L651.936 83.9205C651.724 83.9867 651.426 84.063 651.041 84.1491C650.657 84.242 650.189 84.2983 649.639 84.3182C648.618 84.358 647.723 84.2221 646.955 83.9105C646.192 83.599 645.599 83.1151 645.175 82.4588C644.75 81.8026 644.542 80.974 644.548 79.973V65.1776ZM661.213 84.4077C659.642 84.4077 658.29 84.0895 657.156 83.4531C656.029 82.8101 655.161 81.902 654.551 80.7287C653.941 79.5488 653.636 78.1534 653.636 76.5426C653.636 74.9716 653.941 73.5928 654.551 72.4062C655.161 71.2197 656.019 70.295 657.126 69.6321C658.24 68.9692 659.546 68.6378 661.044 68.6378C662.052 68.6378 662.99 68.8002 663.858 69.125C664.733 69.4432 665.495 69.9238 666.145 70.5668C666.801 71.2098 667.312 72.0185 667.676 72.9929C668.041 73.9607 668.223 75.0942 668.223 76.3935V77.5568H655.327V74.9318H664.236C664.236 74.322 664.103 73.7817 663.838 73.3111C663.573 72.8404 663.205 72.4725 662.734 72.2074C662.27 71.9356 661.73 71.7997 661.114 71.7997C660.471 71.7997 659.901 71.9489 659.403 72.2472C658.913 72.5388 658.528 72.9332 658.25 73.4304C657.972 73.9209 657.829 74.4678 657.822 75.071V77.5668C657.822 78.3224 657.962 78.9754 658.24 79.5256C658.525 80.0758 658.926 80.5 659.443 80.7983C659.96 81.0966 660.573 81.2457 661.283 81.2457C661.753 81.2457 662.184 81.1795 662.575 81.0469C662.966 80.9143 663.301 80.7154 663.58 80.4503C663.858 80.1851 664.07 79.8603 664.216 79.4759L668.134 79.7344C667.935 80.6757 667.527 81.4976 666.911 82.2003C666.301 82.8963 665.512 83.4399 664.544 83.831C663.583 84.2154 662.473 84.4077 661.213 84.4077ZM680.48 84.1094L676.324 68.8366H680.61L682.976 79.098H683.115L685.581 68.8366H689.787L692.293 79.0384H692.422L694.749 68.8366H699.025L694.878 84.1094H690.394L687.769 74.5043H687.58L684.955 84.1094H680.48ZM701.284 84.1094V68.8366H705.52V84.1094H701.284ZM703.412 66.8679C702.782 66.8679 702.242 66.6591 701.791 66.2415C701.347 65.8172 701.125 65.3101 701.125 64.7202C701.125 64.1368 701.347 63.6364 701.791 63.2188C702.242 62.7945 702.782 62.5824 703.412 62.5824C704.042 62.5824 704.579 62.7945 705.023 63.2188C705.473 63.6364 705.699 64.1368 705.699 64.7202C705.699 65.3101 705.473 65.8172 705.023 66.2415C704.579 66.6591 704.042 66.8679 703.412 66.8679ZM717.037 68.8366V72.0185H707.839V68.8366H717.037ZM709.927 65.1776H714.163V79.4162C714.163 79.8073 714.223 80.1122 714.342 80.331C714.461 80.5431 714.627 80.6922 714.839 80.7784C715.058 80.8646 715.31 80.9077 715.595 80.9077C715.794 80.9077 715.993 80.8911 716.191 80.858C716.39 80.8182 716.543 80.7884 716.649 80.7685L717.315 83.9205C717.103 83.9867 716.805 84.063 716.42 84.1491C716.036 84.242 715.568 84.2983 715.018 84.3182C713.997 84.358 713.102 84.2221 712.333 83.9105C711.571 83.599 710.978 83.1151 710.554 82.4588C710.129 81.8026 709.921 80.974 709.927 79.973V65.1776ZM724.36 75.2798V84.1094H720.124V63.7457H724.24V71.5312H724.419C724.764 70.6297 725.321 69.9238 726.09 69.4134C726.859 68.8963 727.823 68.6378 728.983 68.6378C730.044 68.6378 730.969 68.8698 731.757 69.3338C732.553 69.7912 733.169 70.4508 733.607 71.3125C734.051 72.1676 734.27 73.1918 734.263 74.3849V84.1094H730.027V75.1406C730.034 74.1993 729.795 73.4669 729.311 72.9432C728.834 72.4195 728.165 72.1577 727.303 72.1577C726.726 72.1577 726.216 72.2803 725.772 72.5256C725.334 72.7708 724.989 73.1288 724.738 73.5994C724.492 74.0634 724.366 74.6236 724.36 75.2798ZM748.313 63.7457V84.1094H744.077V63.7457H748.313ZM756.061 84.3977C755.087 84.3977 754.218 84.2287 753.456 83.8906C752.694 83.5459 752.09 83.0388 751.646 82.3693C751.209 81.6932 750.99 80.8513 750.99 79.8438C750.99 78.9953 751.146 78.2827 751.457 77.706C751.769 77.1293 752.193 76.6652 752.73 76.3139C753.267 75.9626 753.877 75.6974 754.56 75.5185C755.249 75.3395 755.972 75.2135 756.727 75.1406C757.616 75.0478 758.331 74.9616 758.875 74.8821C759.419 74.7959 759.813 74.67 760.058 74.5043C760.304 74.3385 760.426 74.0933 760.426 73.7685V73.7088C760.426 73.0791 760.227 72.5919 759.83 72.2472C759.438 71.9025 758.882 71.7301 758.159 71.7301C757.397 71.7301 756.79 71.8991 756.339 72.2372C755.889 72.5687 755.59 72.9863 755.445 73.4901L751.527 73.1719C751.726 72.2438 752.117 71.4418 752.7 70.7656C753.284 70.0829 754.036 69.5592 754.957 69.1946C755.885 68.8234 756.959 68.6378 758.179 68.6378C759.027 68.6378 759.839 68.7372 760.615 68.9361C761.397 69.1349 762.09 69.4432 762.693 69.8608C763.303 70.2784 763.784 70.8153 764.135 71.4716C764.486 72.1212 764.662 72.9001 764.662 73.8082V84.1094H760.645V81.9915H760.526C760.28 82.4688 759.952 82.8897 759.541 83.2543C759.13 83.6122 758.636 83.8939 758.06 84.0994C757.483 84.2983 756.817 84.3977 756.061 84.3977ZM757.274 81.4744C757.897 81.4744 758.447 81.3518 758.925 81.1065C759.402 80.8546 759.777 80.5166 760.048 80.0923C760.32 79.6681 760.456 79.1875 760.456 78.6506V77.0298C760.323 77.116 760.141 77.1955 759.909 77.2685C759.684 77.3348 759.429 77.3977 759.143 77.4574C758.858 77.5104 758.573 77.5601 758.288 77.6065C758.003 77.6463 757.745 77.6828 757.513 77.7159C757.016 77.7888 756.581 77.9048 756.21 78.0639C755.839 78.223 755.551 78.4384 755.345 78.7102C755.14 78.9754 755.037 79.3068 755.037 79.7045C755.037 80.2812 755.246 80.7221 755.663 81.027C756.088 81.3253 756.625 81.4744 757.274 81.4744ZM776.072 68.8366V72.0185H766.874V68.8366H776.072ZM768.962 65.1776H773.198V79.4162C773.198 79.8073 773.258 80.1122 773.377 80.331C773.496 80.5431 773.662 80.6922 773.874 80.7784C774.093 80.8646 774.345 80.9077 774.63 80.9077C774.829 80.9077 775.028 80.8911 775.227 80.858C775.425 80.8182 775.578 80.7884 775.684 80.7685L776.35 83.9205C776.138 83.9867 775.84 84.063 775.455 84.1491C775.071 84.242 774.603 84.2983 774.053 84.3182C773.032 84.358 772.138 84.2221 771.369 83.9105C770.606 83.599 770.013 83.1151 769.589 82.4588C769.165 81.8026 768.956 80.974 768.962 79.973V65.1776ZM785.627 84.4077C784.056 84.4077 782.704 84.0895 781.57 83.4531C780.443 82.8101 779.575 81.902 778.965 80.7287C778.355 79.5488 778.05 78.1534 778.05 76.5426C778.05 74.9716 778.355 73.5928 778.965 72.4062C779.575 71.2197 780.433 70.295 781.54 69.6321C782.654 68.9692 783.96 68.6378 785.458 68.6378C786.466 68.6378 787.404 68.8002 788.272 69.125C789.147 69.4432 789.909 69.9238 790.559 70.5668C791.215 71.2098 791.726 72.0185 792.09 72.9929C792.455 73.9607 792.637 75.0942 792.637 76.3935V77.5568H779.741V74.9318H788.65C788.65 74.322 788.517 73.7817 788.252 73.3111C787.987 72.8404 787.619 72.4725 787.148 72.2074C786.684 71.9356 786.144 71.7997 785.528 71.7997C784.885 71.7997 784.315 71.9489 783.817 72.2472C783.327 72.5388 782.942 72.9332 782.664 73.4304C782.386 73.9209 782.243 74.4678 782.237 75.071V77.5668C782.237 78.3224 782.376 78.9754 782.654 79.5256C782.939 80.0758 783.34 80.5 783.857 80.7983C784.374 81.0966 784.987 81.2457 785.697 81.2457C786.167 81.2457 786.598 81.1795 786.989 81.0469C787.38 80.9143 787.715 80.7154 787.994 80.4503C788.272 80.1851 788.484 79.8603 788.63 79.4759L792.548 79.7344C792.349 80.6757 791.941 81.4976 791.325 82.2003C790.715 82.8963 789.926 83.4399 788.958 83.831C787.997 84.2154 786.887 84.4077 785.627 84.4077ZM808.109 73.1918L804.231 73.4304C804.165 73.099 804.022 72.8007 803.803 72.5355C803.585 72.2637 803.296 72.0483 802.938 71.8892C802.587 71.7235 802.166 71.6406 801.675 71.6406C801.019 71.6406 800.466 71.7798 800.015 72.0582C799.564 72.33 799.339 72.6946 799.339 73.152C799.339 73.5166 799.485 73.8248 799.776 74.0767C800.068 74.3286 800.568 74.5308 801.278 74.6832L804.042 75.2401C805.527 75.545 806.634 76.0355 807.363 76.7116C808.092 77.3878 808.457 78.276 808.457 79.3764C808.457 80.3774 808.162 81.2557 807.572 82.0114C806.988 82.767 806.186 83.357 805.165 83.7812C804.151 84.1989 802.981 84.4077 801.656 84.4077C799.634 84.4077 798.023 83.9867 796.823 83.1449C795.63 82.2964 794.931 81.143 794.725 79.6847L798.891 79.4659C799.017 80.0824 799.322 80.553 799.806 80.8778C800.29 81.196 800.91 81.3551 801.665 81.3551C802.408 81.3551 803.004 81.2126 803.455 80.9276C803.913 80.6359 804.145 80.2614 804.151 79.804C804.145 79.4195 803.982 79.1046 803.664 78.8594C803.346 78.6075 802.855 78.4152 802.192 78.2827L799.548 77.7557C798.056 77.4574 796.946 76.9403 796.217 76.2045C795.494 75.4687 795.133 74.5308 795.133 73.3906C795.133 72.4096 795.398 71.5644 795.928 70.8551C796.465 70.1458 797.218 69.599 798.185 69.2145C799.16 68.83 800.3 68.6378 801.606 68.6378C803.535 68.6378 805.053 69.0455 806.16 69.8608C807.273 70.6761 807.923 71.7865 808.109 73.1918ZM819.248 68.8366V72.0185H810.05V68.8366H819.248ZM812.138 65.1776H816.374V79.4162C816.374 79.8073 816.434 80.1122 816.553 80.331C816.672 80.5431 816.838 80.6922 817.05 80.7784C817.269 80.8646 817.521 80.9077 817.806 80.9077C818.005 80.9077 818.203 80.8911 818.402 80.858C818.601 80.8182 818.754 80.7884 818.86 80.7685L819.526 83.9205C819.314 83.9867 819.016 84.063 818.631 84.1491C818.247 84.242 817.779 84.2983 817.229 84.3182C816.208 84.358 815.313 84.2221 814.544 83.9105C813.782 83.599 813.189 83.1151 812.765 82.4588C812.34 81.8026 812.132 80.974 812.138 79.973V65.1776ZM835.388 84.4077C833.823 84.4077 832.478 84.0762 831.351 83.4134C830.231 82.7438 829.369 81.8158 828.766 80.6293C828.169 79.4427 827.871 78.0772 827.871 76.5327C827.871 74.9683 828.172 73.5961 828.776 72.4162C829.385 71.2296 830.25 70.3049 831.371 69.642C832.491 68.9725 833.823 68.6378 835.368 68.6378C836.7 68.6378 837.867 68.8797 838.868 69.3636C839.869 69.8475 840.661 70.527 841.244 71.402C841.828 72.277 842.149 73.3045 842.209 74.4844H838.212C838.099 73.7221 837.801 73.1089 837.317 72.6449C836.839 72.1742 836.213 71.9389 835.438 71.9389C834.781 71.9389 834.208 72.1179 833.717 72.4759C833.233 72.8272 832.856 73.3409 832.584 74.017C832.312 74.6932 832.176 75.5118 832.176 76.473C832.176 77.4474 832.309 78.276 832.574 78.9588C832.846 79.6416 833.227 80.1619 833.717 80.5199C834.208 80.8778 834.781 81.0568 835.438 81.0568C835.921 81.0568 836.356 80.9574 836.74 80.7585C837.131 80.5597 837.453 80.2713 837.705 79.8935C837.963 79.509 838.132 79.0483 838.212 78.5114H842.209C842.143 79.678 841.824 80.7055 841.254 81.5938C840.691 82.4754 839.912 83.1648 838.918 83.6619C837.923 84.1591 836.747 84.4077 835.388 84.4077ZM844.921 84.1094V68.8366H849.027V71.5014H849.186C849.465 70.5535 849.932 69.8376 850.588 69.3537C851.245 68.8632 852 68.6179 852.855 68.6179C853.068 68.6179 853.296 68.6312 853.542 68.6577C853.787 68.6842 854.002 68.7206 854.188 68.767V72.5256C853.989 72.4659 853.714 72.4129 853.363 72.3665C853.011 72.3201 852.69 72.2969 852.398 72.2969C851.775 72.2969 851.218 72.4328 850.728 72.7045C850.244 72.9697 849.859 73.3409 849.574 73.8182C849.296 74.2955 849.157 74.8456 849.157 75.4688V84.1094H844.921ZM859.458 89.8366C858.921 89.8366 858.417 89.7936 857.946 89.7074C857.482 89.6278 857.098 89.5251 856.793 89.3991L857.748 86.2372C858.245 86.3897 858.692 86.4725 859.09 86.4858C859.494 86.4991 859.842 86.4063 860.134 86.2074C860.432 86.0085 860.674 85.6705 860.86 85.1932L861.108 84.5469L855.63 68.8366H860.084L863.246 80.0526H863.405L866.597 68.8366H871.081L865.145 85.7599C864.86 86.5819 864.472 87.2978 863.982 87.9077C863.498 88.5241 862.885 88.9981 862.142 89.3295C861.4 89.6676 860.505 89.8366 859.458 89.8366ZM873.249 89.8366V68.8366H877.425V71.402H877.614C877.8 70.991 878.068 70.5734 878.419 70.1491C878.777 69.7183 879.241 69.3603 879.811 69.0753C880.388 68.7836 881.104 68.6378 881.959 68.6378C883.073 68.6378 884.1 68.9295 885.042 69.5128C885.983 70.0895 886.735 70.9612 887.299 72.1278C887.862 73.2879 888.144 74.7429 888.144 76.4929C888.144 78.1965 887.869 79.6349 887.319 80.8082C886.775 81.9749 886.033 82.8598 885.091 83.4631C884.157 84.0597 883.109 84.358 881.949 84.358C881.127 84.358 880.428 84.2221 879.851 83.9503C879.281 83.6785 878.814 83.3371 878.449 82.9261C878.085 82.5085 877.806 82.0876 877.614 81.6634H877.485V89.8366H873.249ZM877.395 76.473C877.395 77.3812 877.521 78.1733 877.773 78.8494C878.025 79.5256 878.39 80.0526 878.867 80.4304C879.344 80.8016 879.924 80.9872 880.607 80.9872C881.296 80.9872 881.88 80.7983 882.357 80.4205C882.834 80.036 883.195 79.5057 883.441 78.8295C883.693 78.1468 883.819 77.3613 883.819 76.473C883.819 75.5914 883.696 74.8158 883.451 74.1463C883.205 73.4768 882.844 72.9531 882.367 72.5753C881.89 72.1974 881.303 72.0085 880.607 72.0085C879.917 72.0085 879.334 72.1908 878.857 72.5554C878.386 72.92 878.025 73.437 877.773 74.1065C877.521 74.776 877.395 75.5649 877.395 76.473ZM899.091 68.8366V72.0185H889.894V68.8366H899.091ZM891.982 65.1776H896.218V79.4162C896.218 79.8073 896.277 80.1122 896.397 80.331C896.516 80.5431 896.682 80.6922 896.894 80.7784C897.113 80.8646 897.364 80.9077 897.65 80.9077C897.848 80.9077 898.047 80.8911 898.246 80.858C898.445 80.8182 898.597 80.7884 898.703 80.7685L899.37 83.9205C899.158 83.9867 898.859 84.063 898.475 84.1491C898.09 84.242 897.623 84.2983 897.073 84.3182C896.052 84.358 895.157 84.2221 894.388 83.9105C893.626 83.599 893.033 83.1151 892.608 82.4588C892.184 81.8026 891.975 80.974 891.982 79.973V65.1776ZM908.587 84.4077C907.042 84.4077 905.707 84.0795 904.58 83.4233C903.46 82.7604 902.595 81.839 901.985 80.6591C901.375 79.4725 901.07 78.0971 901.07 76.5327C901.07 74.955 901.375 73.5762 901.985 72.3963C902.595 71.2098 903.46 70.2884 904.58 69.6321C905.707 68.9692 907.042 68.6378 908.587 68.6378C910.132 68.6378 911.464 68.9692 912.584 69.6321C913.711 70.2884 914.579 71.2098 915.189 72.3963C915.799 73.5762 916.104 74.955 916.104 76.5327C916.104 78.0971 915.799 79.4725 915.189 80.6591C914.579 81.839 913.711 82.7604 912.584 83.4233C911.464 84.0795 910.132 84.4077 908.587 84.4077ZM908.607 81.1264C909.31 81.1264 909.896 80.9276 910.367 80.5298C910.837 80.1255 911.192 79.5753 911.431 78.8793C911.676 78.1832 911.799 77.3911 911.799 76.5028C911.799 75.6146 911.676 74.8224 911.431 74.1264C911.192 73.4304 910.837 72.8802 910.367 72.4759C909.896 72.0715 909.31 71.8693 908.607 71.8693C907.898 71.8693 907.301 72.0715 906.817 72.4759C906.34 72.8802 905.979 73.4304 905.733 74.1264C905.495 74.8224 905.375 75.6146 905.375 76.5028C905.375 77.3911 905.495 78.1832 905.733 78.8793C905.979 79.5753 906.34 80.1255 906.817 80.5298C907.301 80.9276 907.898 81.1264 908.607 81.1264ZM929.575 75.2798V84.1094H925.339V68.8366H929.376V71.5312H929.555C929.893 70.643 930.46 69.9403 931.255 69.4233C932.05 68.8996 933.015 68.6378 934.148 68.6378C935.209 68.6378 936.134 68.8698 936.923 69.3338C937.711 69.7978 938.325 70.4607 938.762 71.3224C939.2 72.1776 939.418 73.1984 939.418 74.3849V84.1094H935.183V75.1406C935.189 74.206 934.951 73.4768 934.467 72.9531C933.983 72.4228 933.317 72.1577 932.468 72.1577C931.898 72.1577 931.394 72.2803 930.957 72.5256C930.526 72.7708 930.188 73.1288 929.942 73.5994C929.704 74.0634 929.581 74.6236 929.575 75.2798ZM949.717 84.4077C948.146 84.4077 946.794 84.0895 945.66 83.4531C944.533 82.8101 943.665 81.902 943.055 80.7287C942.445 79.5488 942.14 78.1534 942.14 76.5426C942.14 74.9716 942.445 73.5928 943.055 72.4062C943.665 71.2197 944.523 70.295 945.63 69.6321C946.744 68.9692 948.05 68.6378 949.548 68.6378C950.556 68.6378 951.493 68.8002 952.362 69.125C953.237 69.4432 953.999 69.9238 954.649 70.5668C955.305 71.2098 955.815 72.0185 956.18 72.9929C956.545 73.9607 956.727 75.0942 956.727 76.3935V77.5568H943.831V74.9318H952.74C952.74 74.322 952.607 73.7817 952.342 73.3111C952.077 72.8404 951.709 72.4725 951.238 72.2074C950.774 71.9356 950.234 71.7997 949.618 71.7997C948.975 71.7997 948.404 71.9489 947.907 72.2472C947.417 72.5388 947.032 72.9332 946.754 73.4304C946.475 73.9209 946.333 74.4678 946.326 75.071V77.5668C946.326 78.3224 946.466 78.9754 946.744 79.5256C947.029 80.0758 947.43 80.5 947.947 80.7983C948.464 81.0966 949.077 81.2457 949.787 81.2457C950.257 81.2457 950.688 81.1795 951.079 81.0469C951.47 80.9143 951.805 80.7154 952.083 80.4503C952.362 80.1851 952.574 79.8603 952.72 79.4759L956.637 79.7344C956.439 80.6757 956.031 81.4976 955.414 82.2003C954.805 82.8963 954.016 83.4399 953.048 83.831C952.087 84.2154 950.976 84.4077 949.717 84.4077ZM962.395 84.1094L958.238 68.8366H962.524L964.89 79.098H965.029L967.495 68.8366H971.701L974.207 79.0384H974.336L976.663 68.8366H980.939L976.792 84.1094H972.308L969.683 74.5043H969.494L966.869 84.1094H962.395ZM995.906 73.1918L992.028 73.4304C991.961 73.099 991.819 72.8007 991.6 72.5355C991.381 72.2637 991.093 72.0483 990.735 71.8892C990.384 71.7235 989.963 71.6406 989.472 71.6406C988.816 71.6406 988.263 71.7798 987.812 72.0582C987.361 72.33 987.136 72.6946 987.136 73.152C987.136 73.5166 987.281 73.8248 987.573 74.0767C987.865 74.3286 988.365 74.5308 989.075 74.6832L991.839 75.2401C993.324 75.545 994.431 76.0355 995.16 76.7116C995.889 77.3878 996.254 78.276 996.254 79.3764C996.254 80.3774 995.959 81.2557 995.369 82.0114C994.785 82.767 993.983 83.357 992.962 83.7812C991.948 84.1989 990.778 84.4077 989.452 84.4077C987.431 84.4077 985.82 83.9867 984.62 83.1449C983.427 82.2964 982.728 81.143 982.522 79.6847L986.688 79.4659C986.814 80.0824 987.119 80.553 987.603 80.8778C988.087 81.196 988.707 81.3551 989.462 81.3551C990.205 81.3551 990.801 81.2126 991.252 80.9276C991.71 80.6359 991.942 80.2614 991.948 79.804C991.942 79.4195 991.779 79.1046 991.461 78.8594C991.143 78.6075 990.652 78.4152 989.989 78.2827L987.344 77.7557C985.853 77.4574 984.743 76.9403 984.013 76.2045C983.291 75.4687 982.93 74.5308 982.93 73.3906C982.93 72.4096 983.195 71.5644 983.725 70.8551C984.262 70.1458 985.014 69.599 985.982 69.2145C986.957 68.83 988.097 68.6378 989.403 68.6378C991.332 68.6378 992.85 69.0455 993.957 69.8608C995.07 70.6761 995.72 71.7865 995.906 73.1918ZM470.045 120.398C469.071 120.398 468.203 120.229 467.44 119.891C466.678 119.546 466.075 119.039 465.631 118.369C465.193 117.693 464.974 116.851 464.974 115.844C464.974 114.995 465.13 114.283 465.442 113.706C465.753 113.129 466.178 112.665 466.714 112.314C467.251 111.963 467.861 111.697 468.544 111.518C469.233 111.339 469.956 111.214 470.712 111.141C471.6 111.048 472.316 110.962 472.859 110.882C473.403 110.796 473.797 110.67 474.043 110.504C474.288 110.339 474.411 110.093 474.411 109.768V109.709C474.411 109.079 474.212 108.592 473.814 108.247C473.423 107.902 472.866 107.73 472.143 107.73C471.381 107.73 470.775 107.899 470.324 108.237C469.873 108.569 469.575 108.986 469.429 109.49L465.511 109.172C465.71 108.244 466.101 107.442 466.685 106.766C467.268 106.083 468.02 105.559 468.942 105.195C469.87 104.823 470.944 104.638 472.163 104.638C473.012 104.638 473.824 104.737 474.599 104.936C475.382 105.135 476.074 105.443 476.678 105.861C477.287 106.278 477.768 106.815 478.119 107.472C478.471 108.121 478.646 108.9 478.646 109.808V120.109H474.629V117.991H474.51C474.265 118.469 473.937 118.89 473.526 119.254C473.115 119.612 472.621 119.894 472.044 120.099C471.467 120.298 470.801 120.398 470.045 120.398ZM471.259 117.474C471.882 117.474 472.432 117.352 472.909 117.107C473.386 116.855 473.761 116.517 474.033 116.092C474.304 115.668 474.44 115.187 474.44 114.651V113.03C474.308 113.116 474.125 113.196 473.893 113.268C473.668 113.335 473.413 113.398 473.128 113.457C472.843 113.51 472.558 113.56 472.273 113.607C471.988 113.646 471.729 113.683 471.497 113.716C471 113.789 470.566 113.905 470.195 114.064C469.823 114.223 469.535 114.438 469.33 114.71C469.124 114.975 469.021 115.307 469.021 115.705C469.021 116.281 469.23 116.722 469.648 117.027C470.072 117.325 470.609 117.474 471.259 117.474ZM486.168 111.28V120.109H481.933V104.837H485.969V107.531H486.148C486.487 106.643 487.053 105.94 487.849 105.423C488.644 104.9 489.609 104.638 490.742 104.638C491.803 104.638 492.728 104.87 493.516 105.334C494.305 105.798 494.918 106.461 495.356 107.322C495.793 108.178 496.012 109.198 496.012 110.385V120.109H491.776V111.141C491.783 110.206 491.544 109.477 491.06 108.953C490.576 108.423 489.91 108.158 489.062 108.158C488.492 108.158 487.988 108.28 487.55 108.526C487.12 108.771 486.781 109.129 486.536 109.599C486.298 110.063 486.175 110.624 486.168 111.28ZM504.978 120.358C503.818 120.358 502.768 120.06 501.826 119.463C500.892 118.86 500.149 117.975 499.599 116.808C499.056 115.635 498.784 114.196 498.784 112.493C498.784 110.743 499.065 109.288 499.629 108.128C500.192 106.961 500.941 106.089 501.876 105.513C502.817 104.929 503.848 104.638 504.968 104.638C505.824 104.638 506.536 104.784 507.106 105.075C507.683 105.36 508.147 105.718 508.498 106.149C508.856 106.573 509.128 106.991 509.314 107.402H509.443V99.7457H513.669V120.109H509.493V117.663H509.314C509.115 118.088 508.833 118.509 508.468 118.926C508.11 119.337 507.643 119.679 507.066 119.95C506.496 120.222 505.8 120.358 504.978 120.358ZM506.321 116.987C507.003 116.987 507.58 116.802 508.051 116.43C508.528 116.053 508.893 115.526 509.145 114.849C509.403 114.173 509.532 113.381 509.532 112.473C509.532 111.565 509.406 110.776 509.154 110.107C508.903 109.437 508.538 108.92 508.061 108.555C507.583 108.191 507.003 108.009 506.321 108.009C505.625 108.009 505.038 108.197 504.561 108.575C504.083 108.953 503.722 109.477 503.477 110.146C503.232 110.816 503.109 111.591 503.109 112.473C503.109 113.361 503.232 114.147 503.477 114.83C503.729 115.506 504.09 116.036 504.561 116.42C505.038 116.798 505.625 116.987 506.321 116.987ZM530.592 120.408C529.021 120.408 527.669 120.089 526.535 119.453C525.408 118.81 524.54 117.902 523.93 116.729C523.32 115.549 523.015 114.153 523.015 112.543C523.015 110.972 523.32 109.593 523.93 108.406C524.54 107.22 525.398 106.295 526.505 105.632C527.619 104.969 528.925 104.638 530.423 104.638C531.431 104.638 532.368 104.8 533.237 105.125C534.112 105.443 534.874 105.924 535.524 106.567C536.18 107.21 536.69 108.018 537.055 108.993C537.42 109.961 537.602 111.094 537.602 112.393V113.557H524.706V110.932H533.615C533.615 110.322 533.482 109.782 533.217 109.311C532.952 108.84 532.584 108.473 532.113 108.207C531.649 107.936 531.109 107.8 530.493 107.8C529.85 107.8 529.279 107.949 528.782 108.247C528.292 108.539 527.907 108.933 527.629 109.43C527.35 109.921 527.208 110.468 527.201 111.071V113.567C527.201 114.322 527.341 114.975 527.619 115.526C527.904 116.076 528.305 116.5 528.822 116.798C529.339 117.097 529.952 117.246 530.662 117.246C531.132 117.246 531.563 117.179 531.954 117.047C532.345 116.914 532.68 116.715 532.958 116.45C533.237 116.185 533.449 115.86 533.595 115.476L537.512 115.734C537.314 116.676 536.906 117.498 536.289 118.2C535.68 118.896 534.891 119.44 533.923 119.831C532.962 120.215 531.851 120.408 530.592 120.408ZM554.195 104.837L548.855 120.109H544.082L538.743 104.837H543.217L546.389 115.764H546.548L549.71 104.837H554.195ZM562.83 120.408C561.259 120.408 559.907 120.089 558.773 119.453C557.647 118.81 556.778 117.902 556.168 116.729C555.558 115.549 555.254 114.153 555.254 112.543C555.254 110.972 555.558 109.593 556.168 108.406C556.778 107.22 557.637 106.295 558.744 105.632C559.857 104.969 561.163 104.638 562.661 104.638C563.669 104.638 564.607 104.8 565.475 105.125C566.35 105.443 567.112 105.924 567.762 106.567C568.418 107.21 568.929 108.018 569.293 108.993C569.658 109.961 569.84 111.094 569.84 112.393V113.557H556.944V110.932H565.853C565.853 110.322 565.72 109.782 565.455 109.311C565.19 108.84 564.822 108.473 564.352 108.207C563.888 107.936 563.347 107.8 562.731 107.8C562.088 107.8 561.518 107.949 561.021 108.247C560.53 108.539 560.146 108.933 559.867 109.43C559.589 109.921 559.446 110.468 559.44 111.071V113.567C559.44 114.322 559.579 114.975 559.857 115.526C560.142 116.076 560.543 116.5 561.06 116.798C561.577 117.097 562.191 117.246 562.9 117.246C563.371 117.246 563.801 117.179 564.192 117.047C564.584 116.914 564.918 116.715 565.197 116.45C565.475 116.185 565.687 115.86 565.833 115.476L569.751 115.734C569.552 116.676 569.144 117.498 568.528 118.2C567.918 118.896 567.129 119.44 566.161 119.831C565.2 120.215 564.09 120.408 562.83 120.408ZM576.84 111.28V120.109H572.604V104.837H576.641V107.531H576.82C577.158 106.643 577.725 105.94 578.521 105.423C579.316 104.9 580.281 104.638 581.414 104.638C582.475 104.638 583.399 104.87 584.188 105.334C584.977 105.798 585.59 106.461 586.028 107.322C586.465 108.178 586.684 109.198 586.684 110.385V120.109H582.448V111.141C582.455 110.206 582.216 109.477 581.732 108.953C581.248 108.423 580.582 108.158 579.734 108.158C579.164 108.158 578.66 108.28 578.222 108.526C577.791 108.771 577.453 109.129 577.208 109.599C576.969 110.063 576.847 110.624 576.84 111.28ZM598.146 104.837V108.018H588.949V104.837H598.146ZM591.037 101.178H595.272V115.416C595.272 115.807 595.332 116.112 595.451 116.331C595.571 116.543 595.736 116.692 595.949 116.778C596.167 116.865 596.419 116.908 596.704 116.908C596.903 116.908 597.102 116.891 597.301 116.858C597.5 116.818 597.652 116.788 597.758 116.768L598.424 119.92C598.212 119.987 597.914 120.063 597.529 120.149C597.145 120.242 596.678 120.298 596.127 120.318C595.107 120.358 594.212 120.222 593.443 119.911C592.681 119.599 592.087 119.115 591.663 118.459C591.239 117.803 591.03 116.974 591.037 115.973V101.178ZM613.421 109.192L609.543 109.43C609.477 109.099 609.335 108.801 609.116 108.536C608.897 108.264 608.609 108.048 608.251 107.889C607.899 107.723 607.478 107.641 606.988 107.641C606.332 107.641 605.778 107.78 605.327 108.058C604.877 108.33 604.651 108.695 604.651 109.152C604.651 109.517 604.797 109.825 605.089 110.077C605.38 110.329 605.881 110.531 606.59 110.683L609.354 111.24C610.839 111.545 611.946 112.036 612.675 112.712C613.405 113.388 613.769 114.276 613.769 115.376C613.769 116.377 613.474 117.256 612.884 118.011C612.301 118.767 611.499 119.357 610.478 119.781C609.464 120.199 608.294 120.408 606.968 120.408C604.946 120.408 603.335 119.987 602.136 119.145C600.942 118.296 600.243 117.143 600.038 115.685L604.204 115.466C604.33 116.082 604.635 116.553 605.119 116.878C605.603 117.196 606.222 117.355 606.978 117.355C607.72 117.355 608.317 117.213 608.768 116.928C609.225 116.636 609.457 116.261 609.464 115.804C609.457 115.42 609.295 115.105 608.977 114.859C608.658 114.607 608.168 114.415 607.505 114.283L604.86 113.756C603.369 113.457 602.258 112.94 601.529 112.205C600.807 111.469 600.445 110.531 600.445 109.391C600.445 108.41 600.71 107.564 601.241 106.855C601.778 106.146 602.53 105.599 603.498 105.214C604.472 104.83 605.612 104.638 606.918 104.638C608.847 104.638 610.365 105.045 611.472 105.861C612.586 106.676 613.236 107.786 613.421 109.192ZM618.912 120.368C618.256 120.368 617.693 120.136 617.222 119.672C616.758 119.201 616.526 118.638 616.526 117.982C616.526 117.332 616.758 116.775 617.222 116.311C617.693 115.847 618.256 115.615 618.912 115.615C619.549 115.615 620.105 115.847 620.583 116.311C621.06 116.775 621.299 117.332 621.299 117.982C621.299 118.419 621.186 118.82 620.961 119.185C620.742 119.543 620.453 119.831 620.096 120.05C619.738 120.262 619.343 120.368 618.912 120.368ZM641.426 105.602C641.347 104.8 641.005 104.177 640.402 103.733C639.799 103.289 638.98 103.067 637.946 103.067C637.243 103.067 636.65 103.166 636.166 103.365C635.682 103.557 635.311 103.826 635.053 104.17C634.801 104.515 634.675 104.906 634.675 105.344C634.661 105.708 634.738 106.027 634.903 106.298C635.076 106.57 635.311 106.805 635.609 107.004C635.908 107.196 636.252 107.366 636.643 107.511C637.035 107.651 637.452 107.77 637.896 107.869L639.726 108.307C640.614 108.506 641.429 108.771 642.172 109.102C642.914 109.434 643.557 109.841 644.101 110.325C644.644 110.809 645.065 111.379 645.364 112.036C645.669 112.692 645.824 113.444 645.831 114.293C645.824 115.539 645.506 116.619 644.876 117.534C644.253 118.442 643.352 119.148 642.172 119.652C640.999 120.149 639.583 120.398 637.926 120.398C636.282 120.398 634.85 120.146 633.631 119.642C632.418 119.138 631.47 118.393 630.787 117.405C630.111 116.411 629.756 115.181 629.723 113.716H633.889C633.936 114.399 634.131 114.969 634.476 115.426C634.827 115.877 635.295 116.218 635.878 116.45C636.468 116.676 637.134 116.788 637.876 116.788C638.606 116.788 639.239 116.682 639.776 116.47C640.319 116.258 640.74 115.963 641.038 115.585C641.337 115.207 641.486 114.773 641.486 114.283C641.486 113.825 641.35 113.441 641.078 113.129C640.813 112.818 640.422 112.553 639.905 112.334C639.394 112.115 638.768 111.916 638.026 111.737L635.808 111.18C634.091 110.763 632.736 110.11 631.741 109.222C630.747 108.333 630.253 107.137 630.26 105.632C630.253 104.399 630.581 103.322 631.244 102.401C631.914 101.479 632.832 100.76 633.999 100.243C635.165 99.7259 636.491 99.4673 637.976 99.4673C639.487 99.4673 640.806 99.7259 641.933 100.243C643.067 100.76 643.948 101.479 644.578 102.401C645.208 103.322 645.533 104.389 645.553 105.602H641.426ZM658.441 113.607V104.837H662.677V120.109H658.61V117.335H658.451C658.107 118.23 657.533 118.949 656.731 119.493C655.936 120.036 654.965 120.308 653.818 120.308C652.797 120.308 651.899 120.076 651.123 119.612C650.348 119.148 649.741 118.489 649.304 117.634C648.873 116.778 648.654 115.754 648.647 114.561V104.837H652.883V113.805C652.89 114.707 653.132 115.42 653.609 115.943C654.086 116.467 654.726 116.729 655.528 116.729C656.038 116.729 656.516 116.613 656.96 116.381C657.404 116.142 657.762 115.791 658.034 115.327C658.312 114.863 658.448 114.289 658.441 113.607ZM666.145 120.109V99.7457H670.381V107.402H670.51C670.696 106.991 670.964 106.573 671.315 106.149C671.673 105.718 672.137 105.36 672.707 105.075C673.284 104.784 674 104.638 674.855 104.638C675.969 104.638 676.996 104.929 677.938 105.513C678.879 106.089 679.631 106.961 680.195 108.128C680.758 109.288 681.04 110.743 681.04 112.493C681.04 114.196 680.765 115.635 680.214 116.808C679.671 117.975 678.929 118.86 677.987 119.463C677.053 120.06 676.005 120.358 674.845 120.358C674.023 120.358 673.324 120.222 672.747 119.95C672.177 119.679 671.71 119.337 671.345 118.926C670.981 118.509 670.702 118.088 670.51 117.663H670.321V120.109H666.145ZM670.291 112.473C670.291 113.381 670.417 114.173 670.669 114.849C670.921 115.526 671.286 116.053 671.763 116.43C672.24 116.802 672.82 116.987 673.503 116.987C674.192 116.987 674.776 116.798 675.253 116.42C675.73 116.036 676.091 115.506 676.337 114.83C676.589 114.147 676.714 113.361 676.714 112.473C676.714 111.591 676.592 110.816 676.347 110.146C676.101 109.477 675.74 108.953 675.263 108.575C674.786 108.197 674.199 108.009 673.503 108.009C672.813 108.009 672.23 108.191 671.753 108.555C671.282 108.92 670.921 109.437 670.669 110.107C670.417 110.776 670.291 111.565 670.291 112.473ZM696.574 109.192L692.696 109.43C692.629 109.099 692.487 108.801 692.268 108.536C692.049 108.264 691.761 108.048 691.403 107.889C691.052 107.723 690.631 107.641 690.14 107.641C689.484 107.641 688.931 107.78 688.48 108.058C688.029 108.33 687.804 108.695 687.804 109.152C687.804 109.517 687.949 109.825 688.241 110.077C688.533 110.329 689.033 110.531 689.743 110.683L692.507 111.24C693.992 111.545 695.099 112.036 695.828 112.712C696.557 113.388 696.922 114.276 696.922 115.376C696.922 116.377 696.627 117.256 696.037 118.011C695.453 118.767 694.651 119.357 693.63 119.781C692.616 120.199 691.446 120.408 690.12 120.408C688.099 120.408 686.488 119.987 685.288 119.145C684.095 118.296 683.395 117.143 683.19 115.685L687.356 115.466C687.482 116.082 687.787 116.553 688.271 116.878C688.755 117.196 689.375 117.355 690.13 117.355C690.873 117.355 691.469 117.213 691.92 116.928C692.377 116.636 692.609 116.261 692.616 115.804C692.609 115.42 692.447 115.105 692.129 114.859C691.811 114.607 691.32 114.415 690.657 114.283L688.012 113.756C686.521 113.457 685.411 112.94 684.681 112.205C683.959 111.469 683.598 110.531 683.598 109.391C683.598 108.41 683.863 107.564 684.393 106.855C684.93 106.146 685.682 105.599 686.65 105.214C687.625 104.83 688.765 104.638 690.071 104.638C692 104.638 693.518 105.045 694.625 105.861C695.738 106.676 696.388 107.786 696.574 109.192ZM706.489 120.408C704.925 120.408 703.579 120.076 702.452 119.413C701.332 118.744 700.47 117.816 699.867 116.629C699.271 115.443 698.972 114.077 698.972 112.533C698.972 110.968 699.274 109.596 699.877 108.416C700.487 107.23 701.352 106.305 702.472 105.642C703.593 104.973 704.925 104.638 706.469 104.638C707.802 104.638 708.969 104.88 709.969 105.364C710.97 105.848 711.763 106.527 712.346 107.402C712.929 108.277 713.251 109.304 713.31 110.484H709.313C709.201 109.722 708.902 109.109 708.418 108.645C707.941 108.174 707.315 107.939 706.539 107.939C705.883 107.939 705.309 108.118 704.819 108.476C704.335 108.827 703.957 109.341 703.685 110.017C703.414 110.693 703.278 111.512 703.278 112.473C703.278 113.447 703.41 114.276 703.675 114.959C703.947 115.642 704.328 116.162 704.819 116.52C705.309 116.878 705.883 117.057 706.539 117.057C707.023 117.057 707.457 116.957 707.842 116.759C708.233 116.56 708.554 116.271 708.806 115.893C709.065 115.509 709.234 115.048 709.313 114.511H713.31C713.244 115.678 712.926 116.705 712.356 117.594C711.792 118.475 711.013 119.165 710.019 119.662C709.025 120.159 707.848 120.408 706.489 120.408ZM716.022 120.109V104.837H720.129V107.501H720.288C720.566 106.554 721.034 105.838 721.69 105.354C722.346 104.863 723.102 104.618 723.957 104.618C724.169 104.618 724.398 104.631 724.643 104.658C724.888 104.684 725.104 104.721 725.289 104.767V108.526C725.091 108.466 724.815 108.413 724.464 108.366C724.113 108.32 723.791 108.297 723.5 108.297C722.877 108.297 722.32 108.433 721.829 108.705C721.345 108.97 720.961 109.341 720.676 109.818C720.397 110.295 720.258 110.846 720.258 111.469V120.109H716.022ZM727.479 120.109V104.837H731.715V120.109H727.479ZM729.607 102.868C728.978 102.868 728.437 102.659 727.987 102.241C727.542 101.817 727.32 101.31 727.32 100.72C727.32 100.137 727.542 99.6364 727.987 99.2188C728.437 98.7945 728.978 98.5824 729.607 98.5824C730.237 98.5824 730.774 98.7945 731.218 99.2188C731.669 99.6364 731.894 100.137 731.894 100.72C731.894 101.31 731.669 101.817 731.218 102.241C730.774 102.659 730.237 102.868 729.607 102.868ZM735.188 120.109V99.7457H739.424V107.402H739.553C739.739 106.991 740.007 106.573 740.358 106.149C740.716 105.718 741.18 105.36 741.75 105.075C742.327 104.784 743.043 104.638 743.898 104.638C745.012 104.638 746.039 104.929 746.98 105.513C747.922 106.089 748.674 106.961 749.238 108.128C749.801 109.288 750.083 110.743 750.083 112.493C750.083 114.196 749.808 115.635 749.257 116.808C748.714 117.975 747.971 118.86 747.03 119.463C746.096 120.06 745.048 120.358 743.888 120.358C743.066 120.358 742.367 120.222 741.79 119.95C741.22 119.679 740.753 119.337 740.388 118.926C740.024 118.509 739.745 118.088 739.553 117.663H739.364V120.109H735.188ZM739.334 112.473C739.334 113.381 739.46 114.173 739.712 114.849C739.964 115.526 740.328 116.053 740.806 116.43C741.283 116.802 741.863 116.987 742.546 116.987C743.235 116.987 743.819 116.798 744.296 116.42C744.773 116.036 745.134 115.506 745.38 114.83C745.632 114.147 745.757 113.361 745.757 112.473C745.757 111.591 745.635 110.816 745.39 110.146C745.144 109.477 744.783 108.953 744.306 108.575C743.828 108.197 743.242 108.009 742.546 108.009C741.856 108.009 741.273 108.191 740.796 108.555C740.325 108.92 739.964 109.437 739.712 110.107C739.46 110.776 739.334 111.565 739.334 112.473ZM759.869 120.408C758.298 120.408 756.946 120.089 755.812 119.453C754.686 118.81 753.817 117.902 753.207 116.729C752.598 115.549 752.293 114.153 752.293 112.543C752.293 110.972 752.598 109.593 753.207 108.406C753.817 107.22 754.676 106.295 755.783 105.632C756.896 104.969 758.202 104.638 759.7 104.638C760.708 104.638 761.646 104.8 762.514 105.125C763.389 105.443 764.152 105.924 764.801 106.567C765.457 107.21 765.968 108.018 766.332 108.993C766.697 109.961 766.879 111.094 766.879 112.393V113.557H753.983V110.932H762.892C762.892 110.322 762.759 109.782 762.494 109.311C762.229 108.84 761.861 108.473 761.391 108.207C760.927 107.936 760.386 107.8 759.77 107.8C759.127 107.8 758.557 107.949 758.06 108.247C757.569 108.539 757.185 108.933 756.906 109.43C756.628 109.921 756.485 110.468 756.479 111.071V113.567C756.479 114.322 756.618 114.975 756.896 115.526C757.181 116.076 757.582 116.5 758.099 116.798C758.616 117.097 759.23 117.246 759.939 117.246C760.41 117.246 760.84 117.179 761.232 117.047C761.623 116.914 761.957 116.715 762.236 116.45C762.514 116.185 762.726 115.86 762.872 115.476L766.79 115.734C766.591 116.676 766.183 117.498 765.567 118.2C764.957 118.896 764.168 119.44 763.2 119.831C762.239 120.215 761.129 120.408 759.869 120.408ZM784.248 104.837V108.018H775.05V104.837H784.248ZM777.138 101.178H781.374V115.416C781.374 115.807 781.434 116.112 781.553 116.331C781.672 116.543 781.838 116.692 782.05 116.778C782.269 116.865 782.521 116.908 782.806 116.908C783.005 116.908 783.203 116.891 783.402 116.858C783.601 116.818 783.754 116.788 783.86 116.768L784.526 119.92C784.314 119.987 784.016 120.063 783.631 120.149C783.247 120.242 782.779 120.298 782.229 120.318C781.208 120.358 780.313 120.222 779.544 119.911C778.782 119.599 778.189 119.115 777.765 118.459C777.34 117.803 777.132 116.974 777.138 115.973V101.178ZM793.743 120.408C792.199 120.408 790.863 120.08 789.736 119.423C788.616 118.76 787.751 117.839 787.141 116.659C786.531 115.473 786.226 114.097 786.226 112.533C786.226 110.955 786.531 109.576 787.141 108.396C787.751 107.21 788.616 106.288 789.736 105.632C790.863 104.969 792.199 104.638 793.743 104.638C795.288 104.638 796.62 104.969 797.74 105.632C798.867 106.288 799.736 107.21 800.346 108.396C800.955 109.576 801.26 110.955 801.26 112.533C801.26 114.097 800.955 115.473 800.346 116.659C799.736 117.839 798.867 118.76 797.74 119.423C796.62 120.08 795.288 120.408 793.743 120.408ZM793.763 117.126C794.466 117.126 795.052 116.928 795.523 116.53C795.994 116.125 796.348 115.575 796.587 114.879C796.832 114.183 796.955 113.391 796.955 112.503C796.955 111.615 796.832 110.822 796.587 110.126C796.348 109.43 795.994 108.88 795.523 108.476C795.052 108.071 794.466 107.869 793.763 107.869C793.054 107.869 792.457 108.071 791.973 108.476C791.496 108.88 791.135 109.43 790.89 110.126C790.651 110.822 790.532 111.615 790.532 112.503C790.532 113.391 790.651 114.183 790.89 114.879C791.135 115.575 791.496 116.125 791.973 116.53C792.457 116.928 793.054 117.126 793.763 117.126ZM817.396 120.408C815.851 120.408 814.515 120.08 813.388 119.423C812.268 118.76 811.403 117.839 810.793 116.659C810.183 115.473 809.879 114.097 809.879 112.533C809.879 110.955 810.183 109.576 810.793 108.396C811.403 107.21 812.268 106.288 813.388 105.632C814.515 104.969 815.851 104.638 817.396 104.638C818.94 104.638 820.272 104.969 821.393 105.632C822.52 106.288 823.388 107.21 823.998 108.396C824.608 109.576 824.913 110.955 824.913 112.533C824.913 114.097 824.608 115.473 823.998 116.659C823.388 117.839 822.52 118.76 821.393 119.423C820.272 120.08 818.94 120.408 817.396 120.408ZM817.415 117.126C818.118 117.126 818.705 116.928 819.175 116.53C819.646 116.125 820.001 115.575 820.239 114.879C820.485 114.183 820.607 113.391 820.607 112.503C820.607 111.615 820.485 110.822 820.239 110.126C820.001 109.43 819.646 108.88 819.175 108.476C818.705 108.071 818.118 107.869 817.415 107.869C816.706 107.869 816.11 108.071 815.626 108.476C815.148 108.88 814.787 109.43 814.542 110.126C814.303 110.822 814.184 111.615 814.184 112.503C814.184 113.391 814.303 114.183 814.542 114.879C814.787 115.575 815.148 116.125 815.626 116.53C816.11 116.928 816.706 117.126 817.415 117.126ZM837.461 113.607V104.837H841.697V120.109H837.63V117.335H837.471C837.126 118.23 836.553 118.949 835.751 119.493C834.955 120.036 833.984 120.308 832.837 120.308C831.817 120.308 830.918 120.076 830.143 119.612C829.367 119.148 828.761 118.489 828.323 117.634C827.892 116.778 827.674 115.754 827.667 114.561V104.837H831.903V113.805C831.909 114.707 832.151 115.42 832.629 115.943C833.106 116.467 833.746 116.729 834.548 116.729C835.058 116.729 835.535 116.613 835.979 116.381C836.424 116.142 836.781 115.791 837.053 115.327C837.332 114.863 837.468 114.289 837.461 113.607ZM845.085 120.109V104.837H849.191V107.501H849.35C849.629 106.554 850.096 105.838 850.752 105.354C851.409 104.863 852.164 104.618 853.02 104.618C853.232 104.618 853.46 104.631 853.706 104.658C853.951 104.684 854.166 104.721 854.352 104.767V108.526C854.153 108.466 853.878 108.413 853.527 108.366C853.175 108.32 852.854 108.297 852.562 108.297C851.939 108.297 851.382 108.433 850.892 108.705C850.408 108.97 850.023 109.341 849.738 109.818C849.46 110.295 849.321 110.846 849.321 111.469V120.109H845.085ZM867.258 111.28V120.109H863.022V104.837H867.059V107.531H867.238C867.576 106.643 868.143 105.94 868.939 105.423C869.734 104.9 870.699 104.638 871.832 104.638C872.893 104.638 873.817 104.87 874.606 105.334C875.395 105.798 876.008 106.461 876.446 107.322C876.883 108.178 877.102 109.198 877.102 110.385V120.109H872.866V111.141C872.873 110.206 872.634 109.477 872.15 108.953C871.666 108.423 871 108.158 870.152 108.158C869.582 108.158 869.078 108.28 868.64 108.526C868.209 108.771 867.871 109.129 867.626 109.599C867.387 110.063 867.265 110.624 867.258 111.28ZM887.401 120.408C885.83 120.408 884.477 120.089 883.344 119.453C882.217 118.81 881.348 117.902 880.739 116.729C880.129 115.549 879.824 114.153 879.824 112.543C879.824 110.972 880.129 109.593 880.739 108.406C881.348 107.22 882.207 106.295 883.314 105.632C884.428 104.969 885.733 104.638 887.232 104.638C888.239 104.638 889.177 104.8 890.045 105.125C890.92 105.443 891.683 105.924 892.332 106.567C892.989 107.21 893.499 108.018 893.864 108.993C894.228 109.961 894.411 111.094 894.411 112.393V113.557H881.514V110.932H890.423C890.423 110.322 890.291 109.782 890.026 109.311C889.76 108.84 889.393 108.473 888.922 108.207C888.458 107.936 887.918 107.8 887.301 107.8C886.658 107.8 886.088 107.949 885.591 108.247C885.1 108.539 884.716 108.933 884.438 109.43C884.159 109.921 884.017 110.468 884.01 111.071V113.567C884.01 114.322 884.149 114.975 884.428 115.526C884.713 116.076 885.114 116.5 885.631 116.798C886.148 117.097 886.761 117.246 887.47 117.246C887.941 117.246 888.372 117.179 888.763 117.047C889.154 116.914 889.489 116.715 889.767 116.45C890.045 116.185 890.258 115.86 890.403 115.476L894.321 115.734C894.122 116.676 893.714 117.498 893.098 118.2C892.488 118.896 891.699 119.44 890.732 119.831C889.77 120.215 888.66 120.408 887.401 120.408ZM900.078 120.109L895.922 104.837H900.207L902.574 115.098H902.713L905.179 104.837H909.385L911.891 115.038H912.02L914.347 104.837H918.622L914.476 120.109H909.991L907.366 110.504H907.178L904.553 120.109H900.078ZM933.589 109.192L929.711 109.43C929.645 109.099 929.502 108.801 929.284 108.536C929.065 108.264 928.777 108.048 928.419 107.889C928.067 107.723 927.646 107.641 927.156 107.641C926.5 107.641 925.946 107.78 925.495 108.058C925.045 108.33 924.819 108.695 924.819 109.152C924.819 109.517 924.965 109.825 925.257 110.077C925.548 110.329 926.049 110.531 926.758 110.683L929.522 111.24C931.007 111.545 932.114 112.036 932.843 112.712C933.573 113.388 933.937 114.276 933.937 115.376C933.937 116.377 933.642 117.256 933.052 118.011C932.469 118.767 931.667 119.357 930.646 119.781C929.632 120.199 928.462 120.408 927.136 120.408C925.114 120.408 923.503 119.987 922.304 119.145C921.11 118.296 920.411 117.143 920.206 115.685L924.372 115.466C924.498 116.082 924.803 116.553 925.287 116.878C925.77 117.196 926.39 117.355 927.146 117.355C927.888 117.355 928.485 117.213 928.936 116.928C929.393 116.636 929.625 116.261 929.632 115.804C929.625 115.42 929.463 115.105 929.145 114.859C928.826 114.607 928.336 114.415 927.673 114.283L925.028 113.756C923.537 113.457 922.426 112.94 921.697 112.205C920.975 111.469 920.613 110.531 920.613 109.391C920.613 108.41 920.878 107.564 921.409 106.855C921.946 106.146 922.698 105.599 923.666 105.214C924.64 104.83 925.78 104.638 927.086 104.638C929.015 104.638 930.533 105.045 931.64 105.861C932.754 106.676 933.404 107.786 933.589 109.192ZM940.84 99.7457V120.109H936.604V99.7457H940.84ZM951.194 120.408C949.623 120.408 948.27 120.089 947.137 119.453C946.01 118.81 945.141 117.902 944.532 116.729C943.922 115.549 943.617 114.153 943.617 112.543C943.617 110.972 943.922 109.593 944.532 108.406C945.141 107.22 946 106.295 947.107 105.632C948.221 104.969 949.526 104.638 951.025 104.638C952.032 104.638 952.97 104.8 953.838 105.125C954.713 105.443 955.476 105.924 956.125 106.567C956.782 107.21 957.292 108.018 957.657 108.993C958.021 109.961 958.203 111.094 958.203 112.393V113.557H945.307V110.932H954.216C954.216 110.322 954.084 109.782 953.819 109.311C953.553 108.84 953.185 108.473 952.715 108.207C952.251 107.936 951.711 107.8 951.094 107.8C950.451 107.8 949.881 107.949 949.384 108.247C948.893 108.539 948.509 108.933 948.23 109.43C947.952 109.921 947.81 110.468 947.803 111.071V113.567C947.803 114.322 947.942 114.975 948.221 115.526C948.506 116.076 948.907 116.5 949.424 116.798C949.941 117.097 950.554 117.246 951.263 117.246C951.734 117.246 952.165 117.179 952.556 117.047C952.947 116.914 953.282 116.715 953.56 116.45C953.838 116.185 954.051 115.86 954.196 115.476L958.114 115.734C957.915 116.676 957.507 117.498 956.891 118.2C956.281 118.896 955.492 119.44 954.525 119.831C953.563 120.215 952.453 120.408 951.194 120.408ZM969.091 104.837V108.018H959.894V104.837H969.091ZM961.982 101.178H966.218V115.416C966.218 115.807 966.277 116.112 966.397 116.331C966.516 116.543 966.682 116.692 966.894 116.778C967.113 116.865 967.364 116.908 967.65 116.908C967.848 116.908 968.047 116.891 968.246 116.858C968.445 116.818 968.597 116.788 968.703 116.768L969.37 119.92C969.158 119.987 968.859 120.063 968.475 120.149C968.09 120.242 967.623 120.298 967.073 120.318C966.052 120.358 965.157 120.222 964.388 119.911C963.626 119.599 963.033 119.115 962.608 118.459C962.184 117.803 961.975 116.974 961.982 115.973V101.178ZM979.974 104.837V108.018H970.777V104.837H979.974ZM972.865 101.178H977.1V115.416C977.1 115.807 977.16 116.112 977.279 116.331C977.399 116.543 977.565 116.692 977.777 116.778C977.995 116.865 978.247 116.908 978.532 116.908C978.731 116.908 978.93 116.891 979.129 116.858C979.328 116.818 979.48 116.788 979.586 116.768L980.252 119.92C980.04 119.987 979.742 120.063 979.358 120.149C978.973 120.242 978.506 120.298 977.956 120.318C976.935 120.358 976.04 120.222 975.271 119.911C974.509 119.599 973.915 119.115 973.491 118.459C973.067 117.803 972.858 116.974 972.865 115.973V101.178ZM989.529 120.408C987.958 120.408 986.606 120.089 985.473 119.453C984.346 118.81 983.477 117.902 982.868 116.729C982.258 115.549 981.953 114.153 981.953 112.543C981.953 110.972 982.258 109.593 982.868 108.406C983.477 107.22 984.336 106.295 985.443 105.632C986.556 104.969 987.862 104.638 989.36 104.638C990.368 104.638 991.306 104.8 992.174 105.125C993.049 105.443 993.812 105.924 994.461 106.567C995.118 107.21 995.628 108.018 995.993 108.993C996.357 109.961 996.539 111.094 996.539 112.393V113.557H983.643V110.932H992.552C992.552 110.322 992.42 109.782 992.154 109.311C991.889 108.84 991.521 108.473 991.051 108.207C990.587 107.936 990.047 107.8 989.43 107.8C988.787 107.8 988.217 107.949 987.72 108.247C987.229 108.539 986.845 108.933 986.566 109.43C986.288 109.921 986.145 110.468 986.139 111.071V113.567C986.139 114.322 986.278 114.975 986.556 115.526C986.842 116.076 987.243 116.5 987.76 116.798C988.277 117.097 988.89 117.246 989.599 117.246C990.07 117.246 990.501 117.179 990.892 117.047C991.283 116.914 991.618 116.715 991.896 116.45C992.174 116.185 992.386 115.86 992.532 115.476L996.45 115.734C996.251 116.676 995.843 117.498 995.227 118.2C994.617 118.896 993.828 119.44 992.86 119.831C991.899 120.215 990.789 120.408 989.529 120.408ZM999.304 120.109V104.837H1003.41V107.501H1003.57C1003.85 106.554 1004.31 105.838 1004.97 105.354C1005.63 104.863 1006.38 104.618 1007.24 104.618C1007.45 104.618 1007.68 104.631 1007.92 104.658C1008.17 104.684 1008.39 104.721 1008.57 104.767V108.526C1008.37 108.466 1008.1 108.413 1007.75 108.366C1007.39 108.32 1007.07 108.297 1006.78 108.297C1006.16 108.297 1005.6 108.433 1005.11 108.705C1004.63 108.97 1004.24 109.341 1003.96 109.818C1003.68 110.295 1003.54 110.846 1003.54 111.469V120.109H999.304Z" fill="white"/>
<g clip-path="url(#clip1_0_548)">
<path d="M464 165.109C464 162.348 466.239 160.109 469 160.109H712V208.109H469C466.239 208.109 464 205.871 464 203.109V165.109Z" fill="white"/>
<path d="M481.233 189.109V178.928H487.378V180.021H482.466V183.462H487.06V184.555H482.466V188.016H487.457V189.109H481.233ZM490.614 184.516V189.109H489.441V181.473H490.575V182.666H490.674C490.853 182.278 491.125 181.967 491.489 181.732C491.854 181.493 492.325 181.374 492.901 181.374C493.418 181.374 493.871 181.48 494.259 181.692C494.646 181.901 494.948 182.219 495.163 182.646C495.379 183.071 495.487 183.607 495.487 184.257V189.109H494.313V184.337C494.313 183.737 494.157 183.269 493.846 182.935C493.534 182.597 493.107 182.428 492.563 182.428C492.189 182.428 491.854 182.509 491.559 182.671C491.267 182.834 491.037 183.071 490.868 183.382C490.699 183.694 490.614 184.071 490.614 184.516ZM500.952 181.473V182.467H496.994V181.473H500.952ZM498.148 179.643H499.321V186.922C499.321 187.253 499.369 187.502 499.465 187.668C499.564 187.83 499.69 187.939 499.843 187.996C499.999 188.049 500.163 188.075 500.335 188.075C500.464 188.075 500.57 188.069 500.653 188.055C500.736 188.039 500.802 188.026 500.852 188.016L501.091 189.07C501.011 189.099 500.9 189.129 500.758 189.159C500.615 189.192 500.434 189.209 500.216 189.209C499.884 189.209 499.559 189.138 499.241 188.995C498.926 188.853 498.665 188.635 498.456 188.344C498.25 188.052 498.148 187.684 498.148 187.24V179.643ZM505.836 189.268C505.1 189.268 504.466 189.106 503.932 188.781C503.402 188.453 502.992 187.996 502.704 187.409C502.419 186.819 502.276 186.133 502.276 185.351C502.276 184.569 502.419 183.879 502.704 183.283C502.992 182.683 503.393 182.215 503.907 181.881C504.424 181.543 505.027 181.374 505.717 181.374C506.115 181.374 506.507 181.44 506.895 181.572C507.283 181.705 507.636 181.92 507.954 182.219C508.272 182.514 508.526 182.905 508.715 183.392C508.904 183.879 508.998 184.479 508.998 185.192V185.689H503.112V184.675H507.805C507.805 184.244 507.719 183.859 507.546 183.521C507.377 183.183 507.135 182.916 506.82 182.721C506.509 182.525 506.141 182.428 505.717 182.428C505.249 182.428 504.845 182.544 504.504 182.776C504.166 183.004 503.905 183.303 503.723 183.67C503.541 184.038 503.45 184.433 503.45 184.854V185.53C503.45 186.107 503.549 186.595 503.748 186.996C503.95 187.394 504.23 187.697 504.588 187.906C504.946 188.112 505.362 188.214 505.836 188.214C506.144 188.214 506.423 188.171 506.671 188.085C506.923 187.996 507.14 187.863 507.323 187.688C507.505 187.509 507.646 187.286 507.745 187.021L508.879 187.339C508.759 187.724 508.559 188.062 508.277 188.354C507.995 188.642 507.647 188.867 507.233 189.03C506.819 189.189 506.353 189.268 505.836 189.268ZM510.783 189.109V181.473H511.916V182.626H511.996C512.135 182.249 512.387 181.942 512.752 181.707C513.116 181.471 513.527 181.354 513.985 181.354C514.071 181.354 514.178 181.355 514.308 181.359C514.437 181.362 514.535 181.367 514.601 181.374V182.567C514.561 182.557 514.47 182.542 514.328 182.522C514.188 182.499 514.041 182.487 513.885 182.487C513.514 182.487 513.182 182.565 512.891 182.721C512.602 182.873 512.374 183.085 512.205 183.357C512.039 183.626 511.956 183.932 511.956 184.277V189.109H510.783ZM520.685 191.973C520.486 191.973 520.309 191.956 520.153 191.923C519.997 191.893 519.89 191.864 519.83 191.834L520.128 190.8C520.413 190.873 520.665 190.899 520.884 190.879C521.103 190.859 521.297 190.762 521.466 190.586C521.638 190.414 521.795 190.134 521.938 189.746L522.157 189.149L519.333 181.473H520.605L522.713 187.558H522.793L524.901 181.473H526.174L522.932 190.223C522.786 190.617 522.606 190.944 522.39 191.202C522.175 191.464 521.925 191.658 521.64 191.784C521.358 191.91 521.04 191.973 520.685 191.973ZM530.551 189.268C529.862 189.268 529.257 189.104 528.737 188.776C528.219 188.448 527.815 187.989 527.523 187.399C527.235 186.809 527.091 186.12 527.091 185.331C527.091 184.536 527.235 183.841 527.523 183.248C527.815 182.655 528.219 182.194 528.737 181.866C529.257 181.538 529.862 181.374 530.551 181.374C531.241 181.374 531.844 181.538 532.361 181.866C532.881 182.194 533.286 182.655 533.574 183.248C533.866 183.841 534.011 184.536 534.011 185.331C534.011 186.12 533.866 186.809 533.574 187.399C533.286 187.989 532.881 188.448 532.361 188.776C531.844 189.104 531.241 189.268 530.551 189.268ZM530.551 188.214C531.075 188.214 531.506 188.08 531.844 187.812C532.182 187.543 532.432 187.19 532.594 186.753C532.757 186.315 532.838 185.841 532.838 185.331C532.838 184.821 532.757 184.345 532.594 183.904C532.432 183.463 532.182 183.107 531.844 182.835C531.506 182.563 531.075 182.428 530.551 182.428C530.027 182.428 529.597 182.563 529.259 182.835C528.92 183.107 528.67 183.463 528.508 183.904C528.345 184.345 528.264 184.821 528.264 185.331C528.264 185.841 528.345 186.315 528.508 186.753C528.67 187.19 528.92 187.543 529.259 187.812C529.597 188.08 530.027 188.214 530.551 188.214ZM540.615 185.987V181.473H541.788V189.109H540.615V187.817H540.535C540.356 188.205 540.078 188.534 539.7 188.806C539.322 189.075 538.845 189.209 538.268 189.209C537.791 189.209 537.367 189.104 536.996 188.896C536.624 188.683 536.333 188.365 536.121 187.941C535.908 187.513 535.802 186.975 535.802 186.325V181.473H536.976V186.246C536.976 186.803 537.131 187.247 537.443 187.578C537.758 187.91 538.159 188.075 538.646 188.075C538.938 188.075 539.234 188.001 539.536 187.852C539.841 187.702 540.096 187.474 540.302 187.165C540.51 186.857 540.615 186.464 540.615 185.987ZM543.937 189.109V181.473H545.071V182.626H545.15C545.289 182.249 545.541 181.942 545.906 181.707C546.27 181.471 546.681 181.354 547.139 181.354C547.225 181.354 547.333 181.355 547.462 181.359C547.591 181.362 547.689 181.367 547.755 181.374V182.567C547.716 182.557 547.624 182.542 547.482 182.522C547.343 182.499 547.195 182.487 547.039 182.487C546.668 182.487 546.337 182.565 546.045 182.721C545.757 182.873 545.528 183.085 545.359 183.357C545.193 183.626 545.11 183.932 545.11 184.277V189.109H543.937ZM556.285 189.268C555.55 189.268 554.915 189.106 554.381 188.781C553.851 188.453 553.442 187.996 553.153 187.409C552.868 186.819 552.726 186.133 552.726 185.351C552.726 184.569 552.868 183.879 553.153 183.283C553.442 182.683 553.843 182.215 554.356 181.881C554.873 181.543 555.477 181.374 556.166 181.374C556.564 181.374 556.956 181.44 557.344 181.572C557.732 181.705 558.085 181.92 558.403 182.219C558.721 182.514 558.975 182.905 559.164 183.392C559.353 183.879 559.447 184.479 559.447 185.192V185.689H553.561V184.675H558.254C558.254 184.244 558.168 183.859 557.996 183.521C557.827 183.183 557.585 182.916 557.27 182.721C556.958 182.525 556.59 182.428 556.166 182.428C555.699 182.428 555.294 182.544 554.953 182.776C554.615 183.004 554.355 183.303 554.172 183.67C553.99 184.038 553.899 184.433 553.899 184.854V185.53C553.899 186.107 553.998 186.595 554.197 186.996C554.399 187.394 554.68 187.697 555.037 187.906C555.395 188.112 555.811 188.214 556.285 188.214C556.594 188.214 556.872 188.171 557.121 188.085C557.372 187.996 557.59 187.863 557.772 187.688C557.954 187.509 558.095 187.286 558.194 187.021L559.328 187.339C559.209 187.724 559.008 188.062 558.726 188.354C558.445 188.642 558.097 188.867 557.682 189.03C557.268 189.189 556.802 189.268 556.285 189.268ZM561.232 189.109V181.473H562.366V182.666H562.465C562.624 182.259 562.881 181.942 563.236 181.717C563.59 181.488 564.016 181.374 564.513 181.374C565.017 181.374 565.436 181.488 565.771 181.717C566.109 181.942 566.373 182.259 566.562 182.666H566.641C566.837 182.272 567.13 181.959 567.521 181.727C567.912 181.491 568.381 181.374 568.928 181.374C569.611 181.374 570.169 181.587 570.604 182.015C571.038 182.439 571.255 183.1 571.255 183.999V189.109H570.081V183.999C570.081 183.435 569.927 183.032 569.619 182.79C569.311 182.549 568.948 182.428 568.53 182.428C567.993 182.428 567.577 182.59 567.282 182.915C566.988 183.236 566.84 183.644 566.84 184.138V189.109H565.647V183.879C565.647 183.445 565.506 183.095 565.224 182.83C564.943 182.562 564.58 182.428 564.135 182.428C563.831 182.428 563.546 182.509 563.28 182.671C563.019 182.834 562.806 183.059 562.644 183.347C562.485 183.632 562.405 183.962 562.405 184.337V189.109H561.232ZM575.647 189.288C575.163 189.288 574.724 189.197 574.33 189.015C573.935 188.829 573.622 188.562 573.39 188.214C573.158 187.863 573.042 187.439 573.042 186.942C573.042 186.504 573.128 186.15 573.301 185.878C573.473 185.603 573.703 185.387 573.992 185.232C574.28 185.076 574.598 184.96 574.946 184.884C575.298 184.804 575.651 184.741 576.005 184.695C576.469 184.635 576.845 184.59 577.134 184.56C577.425 184.527 577.637 184.473 577.77 184.396C577.906 184.32 577.974 184.187 577.974 183.999V183.959C577.974 183.468 577.84 183.087 577.571 182.815C577.306 182.544 576.903 182.408 576.363 182.408C575.803 182.408 575.364 182.53 575.046 182.776C574.727 183.021 574.504 183.283 574.374 183.561L573.261 183.163C573.46 182.699 573.725 182.338 574.056 182.08C574.391 181.818 574.756 181.635 575.15 181.533C575.548 181.427 575.939 181.374 576.323 181.374C576.569 181.374 576.85 181.403 577.169 181.463C577.49 181.519 577.8 181.637 578.098 181.816C578.4 181.995 578.65 182.265 578.849 182.626C579.048 182.988 579.147 183.472 579.147 184.078V189.109H577.974V188.075H577.914C577.835 188.241 577.702 188.418 577.517 188.607C577.331 188.796 577.084 188.957 576.776 189.089C576.468 189.222 576.091 189.288 575.647 189.288ZM575.826 188.234C576.29 188.234 576.681 188.143 576.999 187.961C577.321 187.779 577.563 187.543 577.725 187.255C577.891 186.967 577.974 186.663 577.974 186.345V185.271C577.924 185.331 577.815 185.386 577.646 185.435C577.48 185.482 577.288 185.523 577.069 185.56C576.854 185.593 576.643 185.623 576.438 185.649C576.235 185.672 576.071 185.692 575.945 185.709C575.641 185.749 575.356 185.813 575.09 185.903C574.829 185.989 574.616 186.12 574.454 186.295C574.295 186.468 574.215 186.703 574.215 187.001C574.215 187.409 574.366 187.717 574.668 187.926C574.973 188.132 575.359 188.234 575.826 188.234ZM581.289 189.109V181.473H582.462V189.109H581.289ZM581.885 180.2C581.657 180.2 581.459 180.122 581.294 179.967C581.131 179.811 581.05 179.624 581.05 179.405C581.05 179.186 581.131 178.999 581.294 178.843C581.459 178.687 581.657 178.609 581.885 178.609C582.114 178.609 582.31 178.687 582.472 178.843C582.638 178.999 582.721 179.186 582.721 179.405C582.721 179.624 582.638 179.811 582.472 179.967C582.31 180.122 582.114 180.2 581.885 180.2ZM585.784 178.928V189.109H584.611V178.928H585.784ZM594.118 189.288C593.634 189.288 593.195 189.197 592.8 189.015C592.406 188.829 592.093 188.562 591.861 188.214C591.629 187.863 591.513 187.439 591.513 186.942C591.513 186.504 591.599 186.15 591.771 185.878C591.944 185.603 592.174 185.387 592.462 185.232C592.751 185.076 593.069 184.96 593.417 184.884C593.768 184.804 594.121 184.741 594.476 184.695C594.94 184.635 595.316 184.59 595.604 184.56C595.896 184.527 596.108 184.473 596.241 184.396C596.377 184.32 596.445 184.187 596.445 183.999V183.959C596.445 183.468 596.31 183.087 596.042 182.815C595.777 182.544 595.374 182.408 594.834 182.408C594.274 182.408 593.835 182.53 593.516 182.776C593.198 183.021 592.974 183.283 592.845 183.561L591.732 183.163C591.93 182.699 592.196 182.338 592.527 182.08C592.862 181.818 593.226 181.635 593.621 181.533C594.018 181.427 594.41 181.374 594.794 181.374C595.039 181.374 595.321 181.403 595.639 181.463C595.961 181.519 596.271 181.637 596.569 181.816C596.871 181.995 597.121 182.265 597.32 182.626C597.518 182.988 597.618 183.472 597.618 184.078V189.109H596.445V188.075H596.385C596.305 188.241 596.173 188.418 595.987 188.607C595.802 188.796 595.555 188.957 595.246 189.089C594.938 189.222 594.562 189.288 594.118 189.288ZM594.297 188.234C594.761 188.234 595.152 188.143 595.47 187.961C595.792 187.779 596.034 187.543 596.196 187.255C596.362 186.967 596.445 186.663 596.445 186.345V185.271C596.395 185.331 596.286 185.386 596.116 185.435C595.951 185.482 595.759 185.523 595.54 185.56C595.324 185.593 595.114 185.623 594.908 185.649C594.706 185.672 594.542 185.692 594.416 185.709C594.111 185.749 593.826 185.813 593.561 185.903C593.299 185.989 593.087 186.12 592.925 186.295C592.766 186.468 592.686 186.703 592.686 187.001C592.686 187.409 592.837 187.717 593.138 187.926C593.443 188.132 593.83 188.234 594.297 188.234ZM602.643 189.268C602.007 189.268 601.445 189.108 600.958 188.786C600.47 188.461 600.089 188.004 599.814 187.414C599.539 186.821 599.401 186.12 599.401 185.311C599.401 184.509 599.539 183.813 599.814 183.223C600.089 182.633 600.472 182.177 600.963 181.856C601.453 181.534 602.02 181.374 602.663 181.374C603.16 181.374 603.553 181.456 603.841 181.622C604.133 181.785 604.355 181.97 604.507 182.179C604.663 182.384 604.784 182.554 604.87 182.686H604.97V178.928H606.143V189.109H605.009V187.936H604.87C604.784 188.075 604.661 188.251 604.502 188.463C604.343 188.672 604.116 188.859 603.821 189.025C603.526 189.187 603.133 189.268 602.643 189.268ZM602.802 188.214C603.273 188.214 603.67 188.092 603.995 187.847C604.32 187.598 604.567 187.255 604.736 186.817C604.905 186.377 604.99 185.868 604.99 185.291C604.99 184.721 604.907 184.222 604.741 183.795C604.575 183.364 604.33 183.029 604.005 182.79C603.68 182.549 603.279 182.428 602.802 182.428C602.305 182.428 601.891 182.555 601.559 182.81C601.231 183.062 600.984 183.405 600.818 183.839C600.656 184.27 600.575 184.754 600.575 185.291C600.575 185.835 600.658 186.329 600.823 186.773C600.992 187.214 601.241 187.565 601.569 187.827C601.901 188.085 602.311 188.214 602.802 188.214ZM611.338 189.268C610.702 189.268 610.14 189.108 609.653 188.786C609.166 188.461 608.785 188.004 608.509 187.414C608.234 186.821 608.097 186.12 608.097 185.311C608.097 184.509 608.234 183.813 608.509 183.223C608.785 182.633 609.167 182.177 609.658 181.856C610.148 181.534 610.715 181.374 611.358 181.374C611.855 181.374 612.248 181.456 612.536 181.622C612.828 181.785 613.05 181.97 613.203 182.179C613.358 182.384 613.479 182.554 613.566 182.686H613.665V178.928H614.838V189.109H613.705V187.936H613.566C613.479 188.075 613.357 188.251 613.198 188.463C613.039 188.672 612.811 188.859 612.517 189.025C612.222 189.187 611.829 189.268 611.338 189.268ZM611.497 188.214C611.968 188.214 612.366 188.092 612.691 187.847C613.015 187.598 613.262 187.255 613.431 186.817C613.6 186.377 613.685 185.868 613.685 185.291C613.685 184.721 613.602 184.222 613.436 183.795C613.271 183.364 613.025 183.029 612.7 182.79C612.376 182.549 611.975 182.428 611.497 182.428C611 182.428 610.586 182.555 610.254 182.81C609.926 183.062 609.679 183.405 609.514 183.839C609.351 184.27 609.27 184.754 609.27 185.291C609.27 185.835 609.353 186.329 609.519 186.773C609.688 187.214 609.936 187.565 610.264 187.827C610.596 188.085 611.007 188.214 611.497 188.214ZM617.15 189.109V181.473H618.284V182.626H618.363C618.502 182.249 618.754 181.942 619.119 181.707C619.483 181.471 619.894 181.354 620.352 181.354C620.438 181.354 620.546 181.355 620.675 181.359C620.804 181.362 620.902 181.367 620.968 181.374V182.567C620.928 182.557 620.837 182.542 620.695 182.522C620.556 182.499 620.408 182.487 620.252 182.487C619.881 182.487 619.55 182.565 619.258 182.721C618.97 182.873 618.741 183.085 618.572 183.357C618.406 183.626 618.323 183.932 618.323 184.277V189.109H617.15ZM625.328 189.268C624.593 189.268 623.958 189.106 623.424 188.781C622.894 188.453 622.485 187.996 622.196 187.409C621.911 186.819 621.769 186.133 621.769 185.351C621.769 184.569 621.911 183.879 622.196 183.283C622.485 182.683 622.886 182.215 623.399 181.881C623.916 181.543 624.52 181.374 625.209 181.374C625.607 181.374 625.999 181.44 626.387 181.572C626.775 181.705 627.128 181.92 627.446 182.219C627.764 182.514 628.018 182.905 628.207 183.392C628.396 183.879 628.49 184.479 628.49 185.192V185.689H622.604V184.675H627.297C627.297 184.244 627.211 183.859 627.039 183.521C626.869 183.183 626.628 182.916 626.313 182.721C626.001 182.525 625.633 182.428 625.209 182.428C624.742 182.428 624.337 182.544 623.996 182.776C623.658 183.004 623.398 183.303 623.215 183.67C623.033 184.038 622.942 184.433 622.942 184.854V185.53C622.942 186.107 623.041 186.595 623.24 186.996C623.442 187.394 623.722 187.697 624.08 187.906C624.438 188.112 624.854 188.214 625.328 188.214C625.637 188.214 625.915 188.171 626.164 188.085C626.415 187.996 626.633 187.863 626.815 187.688C626.997 187.509 627.138 187.286 627.237 187.021L628.371 187.339C628.252 187.724 628.051 188.062 627.769 188.354C627.488 188.642 627.14 188.867 626.725 189.03C626.311 189.189 625.845 189.268 625.328 189.268ZM635.684 183.183L634.63 183.482C634.564 183.306 634.466 183.135 634.337 182.969C634.211 182.8 634.039 182.661 633.82 182.552C633.601 182.442 633.321 182.388 632.98 182.388C632.512 182.388 632.123 182.496 631.811 182.711C631.503 182.923 631.349 183.193 631.349 183.521C631.349 183.813 631.455 184.043 631.667 184.212C631.879 184.381 632.211 184.522 632.661 184.635L633.795 184.913C634.478 185.079 634.986 185.333 635.321 185.674C635.656 186.012 635.823 186.448 635.823 186.982C635.823 187.419 635.697 187.81 635.445 188.155C635.197 188.5 634.849 188.771 634.401 188.97C633.954 189.169 633.434 189.268 632.84 189.268C632.061 189.268 631.417 189.099 630.906 188.761C630.396 188.423 630.073 187.929 629.937 187.28L631.051 187.001C631.157 187.412 631.357 187.721 631.652 187.926C631.95 188.132 632.34 188.234 632.82 188.234C633.367 188.234 633.802 188.118 634.123 187.886C634.448 187.651 634.61 187.369 634.61 187.041C634.61 186.776 634.517 186.554 634.332 186.375C634.146 186.193 633.861 186.057 633.477 185.967L632.204 185.669C631.505 185.503 630.991 185.246 630.663 184.898C630.338 184.547 630.176 184.108 630.176 183.581C630.176 183.15 630.297 182.769 630.539 182.438C630.784 182.106 631.117 181.846 631.538 181.657C631.962 181.468 632.443 181.374 632.98 181.374C633.735 181.374 634.329 181.539 634.759 181.871C635.194 182.202 635.502 182.64 635.684 183.183ZM642.999 183.183L641.945 183.482C641.878 183.306 641.781 183.135 641.651 182.969C641.525 182.8 641.353 182.661 641.134 182.552C640.915 182.442 640.635 182.388 640.294 182.388C639.827 182.388 639.437 182.496 639.126 182.711C638.817 182.923 638.663 183.193 638.663 183.521C638.663 183.813 638.769 184.043 638.982 184.212C639.194 184.381 639.525 184.522 639.976 184.635L641.109 184.913C641.792 185.079 642.301 185.333 642.636 185.674C642.97 186.012 643.138 186.448 643.138 186.982C643.138 187.419 643.012 187.81 642.76 188.155C642.511 188.5 642.163 188.771 641.716 188.97C641.268 189.169 640.748 189.268 640.155 189.268C639.376 189.268 638.731 189.099 638.221 188.761C637.71 188.423 637.387 187.929 637.251 187.28L638.365 187.001C638.471 187.412 638.672 187.721 638.967 187.926C639.265 188.132 639.654 188.234 640.135 188.234C640.682 188.234 641.116 188.118 641.438 187.886C641.762 187.651 641.925 187.369 641.925 187.041C641.925 186.776 641.832 186.554 641.646 186.375C641.461 186.193 641.176 186.057 640.791 185.967L639.518 185.669C638.819 185.503 638.305 185.246 637.977 184.898C637.652 184.547 637.49 184.108 637.49 183.581C637.49 183.15 637.611 182.769 637.853 182.438C638.098 182.106 638.431 181.846 638.852 181.657C639.277 181.468 639.757 181.374 640.294 181.374C641.05 181.374 641.643 181.539 642.074 181.871C642.508 182.202 642.816 182.64 642.999 183.183Z" fill="#474A57"/>
<path d="M712.5 160.609H824C826.485 160.609 828.5 162.624 828.5 165.109V203.109C828.5 205.595 826.485 207.609 824 207.609H712.5V160.609Z" fill="#FFB800"/>
<path d="M742.538 181.727C742.491 181.292 742.296 180.954 741.951 180.712C741.61 180.47 741.165 180.349 740.619 180.349C740.234 180.349 739.904 180.407 739.629 180.523C739.354 180.639 739.144 180.797 738.998 180.996C738.852 181.195 738.777 181.422 738.774 181.677C738.774 181.889 738.822 182.073 738.918 182.229C739.018 182.384 739.152 182.517 739.321 182.626C739.49 182.732 739.677 182.822 739.883 182.895C740.088 182.968 740.295 183.029 740.504 183.079L741.459 183.317C741.843 183.407 742.213 183.528 742.567 183.68C742.925 183.833 743.245 184.025 743.527 184.257C743.812 184.489 744.037 184.769 744.203 185.097C744.369 185.425 744.452 185.81 744.452 186.251C744.452 186.847 744.299 187.373 743.994 187.827C743.689 188.277 743.249 188.63 742.672 188.886C742.098 189.138 741.404 189.263 740.589 189.263C739.797 189.263 739.109 189.141 738.526 188.896C737.946 188.65 737.491 188.292 737.163 187.822C736.839 187.351 736.663 186.778 736.636 186.102H738.451C738.478 186.456 738.587 186.751 738.779 186.987C738.971 187.222 739.222 187.397 739.53 187.513C739.841 187.629 740.189 187.688 740.574 187.688C740.975 187.688 741.326 187.628 741.628 187.509C741.933 187.386 742.171 187.217 742.344 187.001C742.516 186.783 742.604 186.527 742.607 186.236C742.604 185.971 742.526 185.752 742.374 185.58C742.221 185.404 742.007 185.258 741.732 185.142C741.46 185.023 741.142 184.917 740.778 184.824L739.619 184.526C738.781 184.31 738.118 183.984 737.631 183.546C737.147 183.105 736.905 182.52 736.905 181.791C736.905 181.191 737.067 180.666 737.392 180.215C737.72 179.764 738.166 179.415 738.729 179.166C739.293 178.914 739.931 178.788 740.643 178.788C741.366 178.788 741.999 178.914 742.543 179.166C743.089 179.415 743.519 179.761 743.83 180.205C744.142 180.646 744.303 181.153 744.312 181.727H742.538ZM750.884 185.898V181.473H752.683V189.109H750.938V187.752H750.859C750.686 188.18 750.403 188.529 750.009 188.801C749.618 189.073 749.135 189.209 748.562 189.209C748.061 189.209 747.619 189.098 747.235 188.876C746.853 188.65 746.555 188.324 746.34 187.896C746.124 187.465 746.017 186.945 746.017 186.335V181.473H747.816V186.057C747.816 186.541 747.949 186.925 748.214 187.21C748.479 187.495 748.827 187.638 749.258 187.638C749.523 187.638 749.78 187.573 750.029 187.444C750.277 187.315 750.481 187.122 750.64 186.867C750.802 186.609 750.884 186.286 750.884 185.898ZM754.614 189.109V178.928H756.413V182.736H756.488C756.581 182.55 756.712 182.353 756.881 182.144C757.05 181.932 757.278 181.751 757.567 181.602C757.855 181.45 758.223 181.374 758.67 181.374C759.26 181.374 759.792 181.524 760.266 181.826C760.744 182.124 761.121 182.567 761.4 183.153C761.682 183.737 761.822 184.453 761.822 185.301C761.822 186.14 761.685 186.852 761.41 187.439C761.135 188.026 760.76 188.473 760.286 188.781C759.812 189.089 759.275 189.244 758.675 189.244C758.238 189.244 757.875 189.171 757.587 189.025C757.298 188.879 757.066 188.703 756.891 188.498C756.718 188.289 756.584 188.092 756.488 187.906H756.384V189.109H754.614ZM756.379 185.291C756.379 185.785 756.448 186.218 756.587 186.589C756.73 186.96 756.934 187.25 757.199 187.459C757.467 187.664 757.792 187.767 758.173 187.767C758.571 187.767 758.904 187.661 759.173 187.449C759.441 187.233 759.643 186.94 759.779 186.569C759.918 186.194 759.988 185.768 759.988 185.291C759.988 184.817 759.92 184.396 759.784 184.028C759.648 183.661 759.446 183.372 759.178 183.163C758.909 182.955 758.574 182.85 758.173 182.85C757.789 182.85 757.462 182.951 757.194 183.153C756.925 183.356 756.722 183.639 756.582 184.004C756.446 184.368 756.379 184.797 756.379 185.291ZM769.388 183.491L767.747 183.67C767.701 183.505 767.62 183.349 767.504 183.203C767.391 183.057 767.239 182.94 767.046 182.85C766.854 182.761 766.619 182.716 766.34 182.716C765.966 182.716 765.651 182.797 765.396 182.96C765.144 183.122 765.02 183.332 765.023 183.591C765.02 183.813 765.101 183.994 765.267 184.133C765.436 184.272 765.714 184.386 766.102 184.476L767.404 184.754C768.127 184.91 768.664 185.157 769.015 185.495C769.37 185.833 769.549 186.276 769.552 186.822C769.549 187.303 769.408 187.727 769.129 188.095C768.854 188.46 768.472 188.745 767.981 188.95C767.49 189.156 766.927 189.259 766.291 189.259C765.356 189.259 764.604 189.063 764.034 188.672C763.463 188.277 763.124 187.729 763.014 187.026L764.769 186.857C764.849 187.202 765.018 187.462 765.276 187.638C765.535 187.813 765.871 187.901 766.286 187.901C766.713 187.901 767.056 187.813 767.315 187.638C767.577 187.462 767.708 187.245 767.708 186.987C767.708 186.768 767.623 186.587 767.454 186.445C767.288 186.302 767.03 186.193 766.678 186.116L765.376 185.843C764.643 185.691 764.102 185.434 763.75 185.072C763.399 184.708 763.225 184.247 763.228 183.69C763.225 183.22 763.352 182.812 763.611 182.467C763.873 182.119 764.236 181.851 764.7 181.662C765.167 181.47 765.706 181.374 766.316 181.374C767.21 181.374 767.915 181.564 768.428 181.945C768.945 182.326 769.265 182.842 769.388 183.491ZM774.367 189.259C773.605 189.259 772.95 189.091 772.403 188.756C771.86 188.422 771.44 187.959 771.145 187.369C770.854 186.776 770.708 186.093 770.708 185.321C770.708 184.545 770.857 183.861 771.155 183.268C771.454 182.671 771.875 182.207 772.418 181.876C772.965 181.541 773.611 181.374 774.357 181.374C774.977 181.374 775.525 181.488 776.003 181.717C776.483 181.942 776.866 182.262 777.151 182.676C777.436 183.087 777.599 183.568 777.638 184.118H775.918C775.849 183.75 775.683 183.443 775.421 183.198C775.162 182.95 774.816 182.825 774.382 182.825C774.014 182.825 773.691 182.925 773.412 183.124C773.134 183.319 772.917 183.601 772.761 183.969C772.609 184.337 772.532 184.777 772.532 185.291C772.532 185.812 772.609 186.259 772.761 186.634C772.914 187.005 773.127 187.291 773.403 187.494C773.681 187.692 774.007 187.792 774.382 187.792C774.647 187.792 774.884 187.742 775.093 187.643C775.305 187.54 775.482 187.393 775.625 187.2C775.767 187.008 775.865 186.774 775.918 186.499H777.638C777.595 187.04 777.436 187.518 777.161 187.936C776.886 188.35 776.511 188.675 776.037 188.911C775.564 189.143 775.007 189.259 774.367 189.259ZM779.116 189.109V181.473H780.861V182.746H780.941C781.08 182.305 781.319 181.965 781.657 181.727C781.998 181.485 782.387 181.364 782.825 181.364C782.924 181.364 783.035 181.369 783.158 181.379C783.284 181.385 783.388 181.397 783.471 181.413V183.069C783.395 183.042 783.274 183.019 783.108 182.999C782.946 182.976 782.788 182.964 782.636 182.964C782.308 182.964 782.013 183.036 781.751 183.178C781.493 183.317 781.289 183.511 781.14 183.76C780.99 184.009 780.916 184.295 780.916 184.62V189.109H779.116ZM784.667 189.109V181.473H786.467V189.109H784.667ZM785.572 180.389C785.287 180.389 785.041 180.295 784.836 180.106C784.63 179.914 784.528 179.683 784.528 179.415C784.528 179.143 784.63 178.913 784.836 178.724C785.041 178.531 785.287 178.435 785.572 178.435C785.86 178.435 786.105 178.531 786.308 178.724C786.513 178.913 786.616 179.143 786.616 179.415C786.616 179.683 786.513 179.914 786.308 180.106C786.105 180.295 785.86 180.389 785.572 180.389ZM788.397 189.109V178.928H790.197V182.736H790.271C790.364 182.55 790.495 182.353 790.664 182.144C790.833 181.932 791.062 181.751 791.35 181.602C791.638 181.45 792.006 181.374 792.454 181.374C793.044 181.374 793.576 181.524 794.05 181.826C794.527 182.124 794.905 182.567 795.183 183.153C795.465 183.737 795.606 184.453 795.606 185.301C795.606 186.14 795.468 186.852 795.193 187.439C794.918 188.026 794.543 188.473 794.069 188.781C793.595 189.089 793.059 189.244 792.459 189.244C792.021 189.244 791.658 189.171 791.37 189.025C791.081 188.879 790.849 188.703 790.674 188.498C790.501 188.289 790.367 188.092 790.271 187.906H790.167V189.109H788.397ZM790.162 185.291C790.162 185.785 790.231 186.218 790.371 186.589C790.513 186.96 790.717 187.25 790.982 187.459C791.251 187.664 791.575 187.767 791.956 187.767C792.354 187.767 792.687 187.661 792.956 187.449C793.224 187.233 793.426 186.94 793.562 186.569C793.702 186.194 793.771 185.768 793.771 185.291C793.771 184.817 793.703 184.396 793.567 184.028C793.431 183.661 793.229 183.372 792.961 183.163C792.692 182.955 792.358 182.85 791.956 182.85C791.572 182.85 791.246 182.951 790.977 183.153C790.709 183.356 790.505 183.639 790.366 184.004C790.23 184.368 790.162 184.797 790.162 185.291ZM800.516 189.259C799.751 189.259 799.089 189.099 798.533 188.781C797.979 188.46 797.553 188.006 797.255 187.419C796.957 186.829 796.808 186.135 796.808 185.336C796.808 184.55 796.957 183.861 797.255 183.268C797.557 182.671 797.978 182.207 798.518 181.876C799.058 181.541 799.693 181.374 800.422 181.374C800.893 181.374 801.337 181.45 801.754 181.602C802.175 181.751 802.546 181.983 802.868 182.298C803.193 182.613 803.448 183.014 803.634 183.501C803.819 183.985 803.912 184.562 803.912 185.232V185.783H797.653V184.57H802.187C802.183 184.226 802.109 183.919 801.963 183.651C801.817 183.379 801.613 183.165 801.352 183.009C801.093 182.853 800.791 182.776 800.447 182.776C800.079 182.776 799.756 182.865 799.477 183.044C799.199 183.22 798.982 183.452 798.826 183.74C798.674 184.025 798.596 184.338 798.592 184.68V185.739C798.592 186.183 798.674 186.564 798.836 186.882C798.998 187.197 799.225 187.439 799.517 187.608C799.809 187.774 800.15 187.857 800.541 187.857C800.803 187.857 801.04 187.82 801.252 187.747C801.464 187.671 801.648 187.56 801.804 187.414C801.96 187.268 802.077 187.088 802.157 186.872L803.837 187.061C803.731 187.505 803.529 187.893 803.231 188.224C802.936 188.553 802.558 188.808 802.097 188.99C801.637 189.169 801.11 189.259 800.516 189.259Z" fill="#0F1629"/>
<path d="M712.5 160.609H824C826.485 160.609 828.5 162.624 828.5 165.109V203.109C828.5 205.595 826.485 207.609 824 207.609H712.5V160.609Z" stroke="white"/>
</g>
</g>
<defs>
<linearGradient id="paint0_linear_0_548" x1="246.42" y1="118.933" x2="238.244" y2="128.096" gradientUnits="userSpaceOnUse">
<stop stop-color="#FFAC00"/>
<stop offset="1" stop-color="#FE7801"/>
</linearGradient>
<linearGradient id="paint1_linear_0_548" x1="230.633" y1="123.704" x2="250.995" y2="123.704" gradientUnits="userSpaceOnUse">
<stop stop-color="#FFCE00"/>
<stop offset="1" stop-color="#FFB003"/>
</linearGradient>
<linearGradient id="paint2_linear_0_548" x1="242.547" y1="131.885" x2="251.442" y2="131.885" gradientUnits="userSpaceOnUse">
<stop stop-color="#FE8B01"/>
<stop offset="1" stop-color="#FE7801"/>
</linearGradient>
<linearGradient id="paint3_linear_0_548" x1="230.941" y1="115.608" x2="239.786" y2="115.608" gradientUnits="userSpaceOnUse">
<stop stop-color="#FFCE00"/>
<stop offset="1" stop-color="#FFC101"/>
</linearGradient>
<clipPath id="clip0_0_548">
<rect width="557" height="152" fill="white" transform="translate(464 56.1094)"/>
</clipPath>
<clipPath id="clip1_0_548">
<rect x="464" y="160.109" width="365" height="48" fill="white"/>
</clipPath>
</defs>
</svg>
