<svg width="136" height="34" viewBox="0 0 136 34" fill="none" xmlns="http://www.w3.org/2000/svg">
<path fill-rule="evenodd" clip-rule="evenodd" d="M52.1791 9.93034L51.041 9.07678L51.5351 8.55365C51.5024 7.71285 51.8889 6.71196 52.6251 5.88202C53.4324 4.97203 54.4942 4.45524 55.3879 4.47425L55.8778 3.95544L56.7314 5.09352L56.716 5.10986C57.3778 5.98831 57.1145 7.57184 55.9768 8.85467C54.7706 10.2134 53.113 10.6372 52.1832 9.92601L52.1791 9.93034Z" fill="#B9B9B9"/>
<path d="M55.1988 8.05708C56.4919 6.59956 56.7451 4.71261 55.7644 3.84245C54.7836 2.9723 52.9402 3.44845 51.6471 4.90597C50.354 6.36349 50.1007 8.25045 51.0815 9.1206C52.0623 9.99076 53.9056 9.51461 55.1988 8.05708Z" fill="url(#paint0_linear_0_633)"/>
<path d="M55.2173 8.073C56.5025 6.62441 56.7413 4.7376 55.7506 3.85868C54.76 2.97977 52.915 3.44157 51.6298 4.89016C50.3446 6.33875 50.1058 8.22556 51.0965 9.10448C52.0871 9.9834 53.932 9.52159 55.2173 8.073Z" fill="white"/>
<path d="M13.5044 17.0952L26.1052 3.59424H19.4042L6.02155 17.6517V3.59424H0V31.5476H6.02155V24.957L9.53935 21.3061L17.919 31.5476H24.9899L14.3568 18.1684L13.5044 17.0941V17.0952Z" fill="white"/>
<path d="M45.524 16.0175C43.6507 13.046 40.2137 11.208 36.0233 11.208C31.545 11.208 27.9089 13.3089 26.1357 16.6378C25.3698 18.0638 24.9521 19.7197 24.9521 21.5281C24.9521 27.5621 29.6251 31.8481 36.0233 31.8481C42.4216 31.8481 47.0593 27.5621 47.0593 21.5281C47.0593 19.4488 46.5073 17.5755 45.524 16.0175ZM36.0233 27.0785C33.1053 27.0785 30.8599 24.9924 30.8599 21.5281C30.8599 18.5486 32.5169 16.5888 34.8375 16.0995C35.2164 16.0164 35.6136 15.9754 36.0233 15.9754C36.3113 15.9754 36.5878 15.9936 36.8598 16.038C39.3511 16.3976 41.1481 18.4018 41.1481 21.5281C41.1481 24.9924 38.9425 27.0785 36.0245 27.0785H36.0233Z" fill="white"/>
<path d="M56.7841 11.506H50.9492V31.5486H56.7841V11.506Z" fill="white"/>
<path d="M74.443 11.208C71.7116 11.208 69.3546 12.1412 67.7841 13.8529V11.5062H62.2109V31.5488H68.0447V21.6385C68.0447 20.1817 68.3588 19.0334 68.9176 18.181C69.7643 16.8665 71.1755 16.2394 72.8724 16.2394C75.1656 16.2394 76.6019 17.4151 76.8932 19.9473C76.9308 20.2637 76.949 20.6074 76.949 20.9693V31.5477H80.1629L82.7873 27.9036V20.077C82.7873 13.9644 79.1944 11.208 74.443 11.208Z" fill="white"/>
<path d="M113.118 3.49866L84.4922 31.5488H93.4022L96.0175 27.8307L110.83 6.75583L113.118 3.49866Z" fill="white"/>
<path d="M104.681 3.49866L103.765 4.77103L89.3996 24.7283L84.4922 31.5488L113.118 3.49866H104.681Z" fill="white"/>
<path d="M110.284 26.6504L109.915 26.1269C109.606 25.6899 109.104 25.4304 108.572 25.4304H101.838C101.588 25.4304 101.395 25.5784 101.303 25.7753L113.75 31.5487L110.284 26.6504Z" fill="white"/>
<path d="M101.303 25.7755C101.221 25.9508 101.22 26.1647 101.342 26.3514L102.724 28.4557H102.728L104.761 31.549H113.751L101.304 25.7755H101.303Z" fill="white"/>
<path d="M97.2558 8.69064L95.1242 5.56093L93.7199 3.49988H84.9248L97.1181 9.49867C97.3571 9.31999 97.447 8.97174 97.257 8.69064H97.2558Z" fill="white"/>
<path d="M84.9238 3.49869L88.6761 8.90797C88.692 8.92959 88.7068 8.9478 88.7227 8.96942C89.0334 9.37572 89.5148 9.61585 90.0292 9.61585H96.7666C96.9043 9.61585 97.0216 9.56805 97.1183 9.49635L84.925 3.49756L84.9238 3.49869Z" fill="white"/>
<path d="M125.491 4.57007H123.122V10.784H121.521V4.57007H119.184V3.38647H125.491V4.57007ZM128.483 3.38647L130.472 8.72911L132.453 3.38647H134.548V10.784H132.93V8.72911L133.108 5.22763L131.014 10.784H129.922L127.836 5.23585L127.998 8.72911V10.784H126.405V3.38647H128.483Z" fill="white"/>
<defs>
<linearGradient id="paint0_linear_0_633" x1="63.1927" y1="5.36168" x2="62.051" y2="6.64689" gradientUnits="userSpaceOnUse">
<stop stop-color="#0080D4"/>
<stop offset="0.47" stop-color="white"/>
<stop offset="0.6" stop-color="#F1F8FC"/>
<stop offset="1" stop-color="#007DCC"/>
</linearGradient>
</defs>
</svg>

